<svg width="6" height="10" viewBox="0 0 6 10" fill="none" xmlns="http://www.w3.org/2000/svg">
    <path d="M5.45983 9.84016L5.78967 9.5126C5.89268 9.40951 5.94943 9.27235 5.94943 9.12577C5.94943 8.97926 5.89268 8.84194 5.78967 8.73885L2.05289 5.00224L5.79382 1.26131C5.89682 1.15838 5.95349 1.02107 5.95349 0.87456C5.95349 0.728055 5.89682 0.590655 5.79382 0.487646L5.46601 0.160001C5.25284 -0.0533338 4.9056 -0.0533338 4.69242 0.160001L0.222389 4.61402C0.119461 4.71695 0.0469392 4.8541 0.0469392 5.00191L0.0469392 5.00362C0.0469391 5.1502 0.119542 5.28736 0.222389 5.39029L4.68031 9.84016C4.78324 9.94325 4.92454 9.99984 5.07104 10C5.21763 10 5.35698 9.94325 5.45983 9.84016Z" fill="#A62525"/>
</svg>
