<svg width="19" height="19" viewBox="0 0 19 19" fill="none" xmlns="http://www.w3.org/2000/svg">
    <path d="M9.5 4.75C9.9099 4.75 10.2422 4.41771 10.2422 4.00781C10.2422 3.59791 9.9099 3.26562 9.5 3.26562C9.0901 3.26562 8.75781 3.59791 8.75781 4.00781C8.75781 4.41771 9.0901 4.75 9.5 4.75Z" fill="#364859"/>
    <path d="M18.2578 17.4414H0.742188C0.332277 17.4414 0 17.7737 0 18.1836C0 18.5935 0.332277 18.9258 0.742188 18.9258H18.2578C18.6677 18.9258 19 18.5935 19 18.1836C19 17.7737 18.6677 17.4414 18.2578 17.4414Z" fill="#364859"/>
    <path d="M19 4.71309C19 4.41967 18.8271 4.15382 18.559 4.03473L9.78259 0.13825C9.5904 0.0528989 9.37116 0.0531587 9.17919 0.138733L0.439932 4.03522C0.172373 4.15452 0 4.42012 0 4.71309V6.67989C0 6.68616 0.000779297 6.69221 0.000927734 6.69845C0.000779297 6.70468 0 6.71073 0 6.717C0 7.12691 0.332277 7.45919 0.742188 7.45919C1.17796 7.45919 1.37305 7.83195 1.37305 8.20138V15.1229C1.37305 15.1384 1.37446 15.1536 1.37538 15.169C1.37442 15.1843 1.37305 15.1995 1.37305 15.215C1.37305 15.625 1.70532 15.9572 2.11523 15.9572H16.959C17.3689 15.9572 17.7012 15.625 17.7012 15.215C17.7012 14.8051 17.3689 14.4729 16.959 14.4729H14.7324V8.20138C14.7324 7.79213 15.0654 7.45919 15.4746 7.45919C15.8839 7.45919 16.2168 7.79213 16.2168 8.20138V11.4862C16.2168 11.8961 16.5491 12.2284 16.959 12.2284C17.3689 12.2284 17.7012 11.8961 17.7012 11.4862V8.20138C17.7012 8.02726 17.7413 7.45919 18.2578 7.45919C18.6677 7.45919 19 7.12691 19 6.717C19 6.71073 18.9992 6.70468 18.9991 6.69845C18.9992 6.69221 19 6.68616 19 6.67989V4.71309ZM4.3418 14.4729H2.85742V8.20138C2.85742 7.79213 3.19037 7.45919 3.59961 7.45919C4.00885 7.45919 4.3418 7.79213 4.3418 8.20138V14.4729ZM7.31055 14.4729H5.82617V8.20138C5.82617 7.79213 6.15912 7.45919 6.56836 7.45919C6.9776 7.45919 7.31055 7.79213 7.31055 8.20138V14.4729ZM10.2793 14.4729H8.79492V8.20138C8.79492 7.79213 9.12787 7.45919 9.53711 7.45919C9.94635 7.45919 10.2793 7.79213 10.2793 8.20138V14.4729ZM13.248 14.4729H11.7637V8.20138C11.7637 7.79213 12.0966 7.45919 12.5059 7.45919C12.9151 7.45919 13.248 7.79213 13.248 8.20138V14.4729ZM17.5156 5.9377H1.48438V5.19481L9.48211 1.62893L17.5156 5.19563V5.9377Z" fill="#364859"/>
</svg>
