<svg width="57" height="57" viewBox="0 0 57 57" fill="none" xmlns="http://www.w3.org/2000/svg">
<path d="M55.1517 25.2565H52.8726C52.7284 24.1666 52.5103 23.0831 52.2213 22.022L54.3193 21.1378C54.7743 20.946 55.1273 20.5887 55.3134 20.1314C55.4995 19.674 55.4963 19.1717 55.3046 18.7169L54.2208 16.1451C53.8249 15.2059 52.7386 14.7638 51.7998 15.1599L49.6999 16.0449C49.1939 15.1861 48.6333 14.3541 48.0258 13.5612L49.6393 11.9477C50.3598 11.2271 50.3598 10.0547 49.6392 9.33405L47.6658 7.3608C47.3168 7.01162 46.8526 6.81937 46.359 6.81937C45.8653 6.81937 45.401 7.01162 45.052 7.36069L43.4386 8.9741C42.5656 8.3055 41.6453 7.69377 40.6919 7.14812L41.5512 5.03692C41.9352 4.093 41.4797 3.01258 40.5359 2.62852L37.9512 1.57654C37.0074 1.19248 35.9267 1.64773 35.5425 2.59165L34.684 4.70107C33.717 4.4504 32.7321 4.25837 31.7435 4.12754V1.8482C31.7435 0.829084 30.9144 0 29.8953 0H27.1047C26.0855 0 25.2564 0.829084 25.2564 1.8482V4.12743C24.1665 4.27148 23.0829 4.48972 22.022 4.7787L21.1377 2.68061C20.7419 1.74158 19.6561 1.29921 18.7168 1.69537L16.1453 2.77924C15.6903 2.97104 15.3373 3.32833 15.1512 3.78569C14.965 4.24304 14.9683 4.74538 15.16 5.20018L16.045 7.30016C15.1863 7.80594 14.3544 8.3667 13.5613 8.97421L11.948 7.36091C11.599 7.01173 11.1348 6.81948 10.641 6.81948C10.1475 6.81948 9.68323 7.01173 9.33428 7.3608L7.36069 9.33417C6.64022 10.0547 6.64022 11.2272 7.36069 11.9478L8.97421 13.5613C8.30561 14.4343 7.69399 15.3543 7.14811 16.308L5.03714 15.4488C4.09278 15.0645 3.01258 15.5201 2.62863 16.464L1.57665 19.0487C1.19248 19.9926 1.64784 21.0732 2.59176 21.4573L4.70107 22.3157C4.4504 23.2827 4.25837 24.2676 4.12754 25.2564H1.8482C0.829084 25.2565 0 26.0856 0 27.1046V29.8953C0 30.9145 0.829195 31.7435 1.84831 31.7435H4.12743C4.27159 32.8334 4.48971 33.9169 4.7787 34.978L2.68072 35.8622C2.2257 36.054 1.87274 36.4113 1.6866 36.8686C1.50046 37.326 1.50368 37.8283 1.69537 38.2831L2.77924 40.8548C3.17506 41.7939 4.26126 42.2358 5.20018 41.84L7.30005 40.955C7.80605 41.8138 8.3667 42.6457 8.9741 43.4387L7.36069 45.0522C6.64022 45.7728 6.64022 46.9453 7.3608 47.6658L9.33416 49.6391C9.68323 49.9883 10.1474 50.1805 10.641 50.1805C11.1347 50.1805 11.599 49.9883 11.948 49.6392L13.5614 48.0258C14.4344 48.6944 15.3547 49.3061 16.3081 49.8518L15.4488 51.963C15.0649 52.9068 15.5203 53.9872 16.4641 54.3714L19.0489 55.4234C19.9931 55.8075 21.0734 55.3519 21.4574 54.4082L22.316 52.2988C23.283 52.5495 24.2679 52.7415 25.2565 52.8724V55.1517C25.2565 56.1708 26.0855 56.9999 27.1047 56.9999H29.8954C30.9146 56.9999 31.7438 56.1708 31.7438 55.1517V52.8724C32.8338 52.7283 33.9175 52.5101 34.9781 52.2211L35.8624 54.3192C36.0542 54.7741 36.4115 55.127 36.8689 55.3132C37.3259 55.4992 37.8283 55.4962 38.2834 55.3044L40.8548 54.2205C41.3098 54.0287 41.6628 53.6715 41.8489 53.2141C42.0351 52.7567 42.0318 52.2544 41.8401 51.7996L40.9551 49.6996C41.8138 49.1938 42.6457 48.6331 43.4388 48.0256L45.0521 49.6389C45.4011 49.9881 45.8653 50.1803 46.3591 50.1803C46.8526 50.1803 47.3169 49.9881 47.6658 49.639L49.6394 47.6656C50.3599 46.945 50.3599 45.7726 49.6394 45.052L48.0259 43.4385C48.6945 42.5656 49.3061 41.6455 49.852 40.6918L51.9631 41.5509C52.4202 41.7371 52.9229 41.734 53.3776 41.5422C53.8324 41.3505 54.1853 40.9931 54.3715 40.5357L55.4235 37.951C55.8076 37.007 55.3523 35.9265 54.4083 35.5423L52.299 34.6839C52.5497 33.717 52.7417 32.7321 52.8726 31.7433H55.1518C56.1709 31.7433 57.0001 30.9142 57.0001 29.8951V27.1043C57 26.0856 56.1708 25.2565 55.1517 25.2565ZM55.3341 29.8953C55.3341 29.9958 55.2523 30.0776 55.1517 30.0776H52.2828C51.7699 30.0776 51.3418 30.4625 51.287 30.9729C51.1485 32.2632 50.8972 33.5515 50.54 34.8028C50.3998 35.2952 50.6514 35.8122 51.1255 36.0052L53.78 37.0857C53.8731 37.1235 53.918 37.23 53.8801 37.3232L52.8281 39.908C52.8046 39.9659 52.7617 39.9938 52.7301 40.0073C52.6985 40.0206 52.6486 40.0317 52.5906 40.0081L49.9347 38.9272C49.4603 38.7339 48.9187 38.9286 48.6755 39.3792C48.0133 40.6047 47.234 41.7767 46.3593 42.8631C46.0374 43.263 46.0683 43.8377 46.4309 44.2L48.4609 46.23C48.532 46.3011 48.532 46.4168 48.461 46.4878L46.4875 48.4612C46.4435 48.5053 46.3931 48.5145 46.3587 48.5145C46.3242 48.5145 46.2739 48.5053 46.2299 48.4612L44.2 46.4314C43.8375 46.0685 43.2629 46.0378 42.863 46.3596C41.8493 47.1762 40.7606 47.9098 39.6278 48.5402C39.1801 48.7891 38.9923 49.3327 39.1911 49.8047L40.3046 52.447C40.3288 52.5045 40.3185 52.5545 40.3055 52.5864C40.2925 52.6182 40.265 52.6613 40.2074 52.6857L37.6359 53.7695C37.5435 53.8087 37.4362 53.765 37.3972 53.6723L36.2843 51.0323C36.0856 50.5602 35.5653 50.3146 35.0739 50.4614C33.7386 50.8606 32.3588 51.1384 30.973 51.287C30.4624 51.3418 30.0775 51.7699 30.0775 52.2831V55.1518C30.0775 55.2523 29.9957 55.3341 29.8951 55.3341H27.1043C27.0039 55.3341 26.9221 55.2523 26.9221 55.1518V52.2828C26.9221 51.7698 26.5371 51.3417 26.0267 51.287C24.7369 51.1487 23.4485 50.8974 22.1973 50.5403C22.1053 50.514 22.0124 50.5014 21.921 50.5014C21.5228 50.5014 21.1514 50.7399 20.9945 51.1257L19.9141 53.7802C19.8764 53.8733 19.77 53.9182 19.6766 53.8802L17.0917 52.8283C16.9986 52.7904 16.9537 52.6839 16.9916 52.5908L18.0728 49.9345C18.2653 49.4607 18.0711 48.9197 17.6206 48.6757C16.3949 48.0134 15.2227 47.2341 14.1365 46.3595C13.7369 46.0378 13.1624 46.0685 12.7997 46.4312L10.7699 48.4612C10.7259 48.5053 10.6755 48.5145 10.641 48.5145C10.6066 48.5145 10.5563 48.5053 10.5122 48.4612L8.53884 46.4879C8.46776 46.4168 8.46776 46.3011 8.53884 46.2301L10.5684 44.2006C10.9314 43.8383 10.9625 43.2636 10.6405 42.8633C9.82406 41.8496 9.09027 40.7609 8.45954 39.6278C8.21032 39.18 7.66645 38.9925 7.19521 39.1914L4.55302 40.3049C4.46062 40.3441 4.35322 40.3004 4.31435 40.2077L3.23048 37.6361C3.20627 37.5786 3.2166 37.5286 3.2296 37.4967C3.24259 37.4648 3.27002 37.4217 3.32766 37.3974L5.96774 36.2847C6.44042 36.0857 6.68565 35.565 6.53849 35.0742C6.13933 33.7388 5.86145 32.3589 5.71274 30.9732C5.6581 30.4627 5.22984 30.0777 4.71673 30.0777H1.84831C1.7478 30.0777 1.66594 29.996 1.66594 29.8955V27.1047C1.66594 27.0042 1.74768 26.9224 1.8482 26.9224H4.71717C5.23006 26.9224 5.65821 26.5375 5.71296 26.0271C5.85146 24.7368 6.10279 23.4485 6.45997 22.1972C6.60024 21.7048 6.34857 21.1878 5.87445 20.9948L3.22004 19.9143C3.12686 19.8765 3.08199 19.77 3.11987 19.6768L4.17185 17.092C4.20973 16.9991 4.31601 16.9541 4.40942 16.9919L7.06526 18.0728C7.54006 18.2662 8.08149 18.0715 8.32449 17.6208C8.98665 16.3953 9.76598 15.2233 10.6407 14.1369C10.9623 13.7373 10.9317 13.1625 10.5691 12.7999L8.53884 10.7699C8.46776 10.6988 8.46776 10.5832 8.53873 10.5122L10.5123 8.53885C10.5563 8.49475 10.6067 8.48553 10.641 8.48553C10.6756 8.48553 10.7259 8.49475 10.7699 8.53885L12.7998 10.5686C13.1623 10.9315 13.7369 10.9622 14.1367 10.6404C15.1505 9.82384 16.2392 9.09016 17.372 8.45977C17.8197 8.21076 18.0075 7.66722 17.8087 7.19532L16.6952 4.55313C16.671 4.4956 16.6813 4.44562 16.6943 4.41375C16.7073 4.38187 16.7347 4.33878 16.7924 4.31446L19.3639 3.2306C19.4567 3.19161 19.5637 3.23526 19.6026 3.32778L20.7154 5.96785C20.9142 6.43987 21.4347 6.68554 21.9259 6.53871C23.2614 6.13944 24.6413 5.86167 26.0268 5.71307C26.5374 5.65832 26.9223 5.23017 26.9223 4.71706V1.84831C26.9223 1.7478 27.004 1.66605 27.1047 1.66605H29.8953C29.9958 1.66605 30.0777 1.7478 30.0777 1.84831V4.71728C30.0777 5.23028 30.4626 5.65843 30.9731 5.71307C32.2629 5.85146 33.5513 6.10268 34.8024 6.45986C35.2955 6.60035 35.8124 6.34869 36.0052 5.87445L37.0857 3.21993C37.1236 3.12675 37.2304 3.08188 37.3233 3.11987L39.9081 4.17185C40.0012 4.20973 40.046 4.31624 40.0082 4.40931L38.927 7.0656C38.7345 7.53939 38.9286 8.08038 39.3792 8.32438C40.6049 8.98676 41.7771 9.76598 42.8633 10.6406C43.2629 10.9623 43.8374 10.9316 44.2001 10.569L46.2301 8.53896C46.2741 8.49486 46.3245 8.48565 46.359 8.48565C46.3934 8.48565 46.4437 8.49486 46.4878 8.53896L48.4612 10.5121C48.5322 10.5832 48.5322 10.6988 48.4612 10.7699L46.4314 12.7998C46.0687 13.1621 46.0378 13.7367 46.3595 14.1369C47.1759 15.1505 47.9097 16.2392 48.5405 17.3723C48.7896 17.8199 49.3329 18.0076 49.8048 17.8087L52.4469 16.6952C52.5399 16.656 52.6468 16.6997 52.6856 16.7923L53.7695 19.364C53.7937 19.4216 53.7834 19.4715 53.7704 19.5034C53.7574 19.5353 53.73 19.5784 53.6723 19.6027L51.0323 20.7154C50.5596 20.9145 50.3144 21.4351 50.4615 21.9259C50.8607 23.2613 51.1385 24.6412 51.2873 26.0269C51.3419 26.5375 51.7702 26.9224 52.2833 26.9224H55.1519C55.2524 26.9224 55.3343 27.0042 55.3343 27.1047V29.8953H55.3341Z" fill="#364859"/>
<path d="M28.4998 7.24683C24.2784 7.24683 20.1961 8.48784 16.6942 10.8356C16.3122 11.0918 16.2101 11.6092 16.4662 11.9913C16.7223 12.3735 17.2396 12.4756 17.6219 12.2193C19.8663 10.7145 22.3696 9.70387 24.9949 9.22763V17.7413L23.59 21.7191C21.4914 23.2429 20.1231 25.7139 20.1231 28.4998C20.1231 28.9576 20.1614 29.4065 20.2325 29.8447L18.3518 33.7795L16.1922 35.939C15.8669 36.2643 15.8669 36.7918 16.1922 37.117C16.3549 37.2795 16.5682 37.361 16.7813 37.361C16.9944 37.361 17.2077 37.2797 17.3704 37.117L19.6309 34.8564C19.6978 34.7895 19.7527 34.7119 19.7934 34.6266L20.9697 32.1655C21.8124 33.8896 23.2303 35.2822 24.9715 36.0944L22.461 37.2943C22.3757 37.3351 22.2981 37.3901 22.2313 37.4568L16.0654 43.6227C15.1172 42.8417 14.2442 41.9731 13.4573 41.03L14.847 39.6403C15.1723 39.315 15.1723 38.7877 14.847 38.4624C14.5217 38.1371 13.9944 38.1371 13.669 38.4624L12.4367 39.6946C10.217 36.5193 8.91282 32.6592 8.91282 28.4997C8.91282 23.1211 11.0579 18.102 14.953 14.3668C15.2849 14.0484 15.296 13.5212 14.9776 13.1891C14.6593 12.8571 14.1321 12.8462 13.7999 13.1645C9.57387 17.2169 7.24666 22.6631 7.24666 28.4999C7.24666 40.2189 16.7808 49.753 28.4998 49.753C35.3508 49.753 41.4539 46.4937 45.3431 41.4452C45.3613 41.4237 45.3782 41.4016 45.394 41.379C48.1268 37.8028 49.753 33.338 49.753 28.4999C49.753 16.781 40.2188 7.24683 28.4998 7.24683ZM26.6135 18.1615C26.6449 18.0725 26.661 17.9787 26.661 17.8841V8.99873C27.2696 8.94176 27.8831 8.91277 28.4999 8.91277C29.12 8.91277 29.7331 8.94309 30.3387 8.99973V17.8841C30.3387 17.9786 30.3548 18.0723 30.3863 18.1615L31.2417 20.5834C30.3711 20.2818 29.4477 20.1232 28.5 20.1232C27.5394 20.1232 26.617 20.2878 25.7569 20.5868L26.6135 18.1615ZM17.4089 44.6354L23.3082 38.736L27.3515 36.8034C27.3553 36.8016 27.3588 36.7993 27.3626 36.7974C27.7348 36.8482 28.1139 36.8767 28.4998 36.8767C28.9166 36.8767 29.3262 36.8451 29.7269 36.786C29.7377 36.7918 29.748 36.7981 29.7591 36.8034L33.8023 38.736L39.6562 44.5898C36.4883 46.7932 32.6426 48.0871 28.4998 48.0871C24.3855 48.0871 20.5643 46.811 17.4089 44.6354ZM40.9949 43.5724L34.8795 37.457C34.8126 37.3902 34.7349 37.3352 34.6497 37.2945L32.0853 36.0689C33.8395 35.2344 35.2589 33.8078 36.0852 32.0489L37.3174 34.6269C37.3581 34.7122 37.413 34.7899 37.4799 34.8567L43.5933 40.9702C42.8102 41.9163 41.9398 42.7877 40.9949 43.5724ZM44.6085 39.6292L38.7589 33.7796L36.8262 29.7363C36.8159 29.7147 36.8044 29.6942 36.7925 29.674C36.8466 29.2901 36.8764 28.8985 36.8764 28.5C36.8764 27.6357 36.7435 26.7806 36.4812 25.9582C36.3415 25.52 35.8727 25.278 35.4344 25.4177C34.9962 25.5574 34.7541 26.0261 34.894 26.4644C35.104 27.1227 35.2105 27.8077 35.2105 28.4999C35.2105 32.2002 32.2001 35.2107 28.4998 35.2107C24.7994 35.2107 21.789 32.2003 21.789 28.4999C21.789 24.7995 24.7994 21.7892 28.4998 21.7892C29.8453 21.7892 31.1309 22.1842 32.2255 22.9198C32.2317 22.9243 32.2379 22.9288 32.2442 22.9331C32.6017 23.1751 32.939 23.4532 33.2509 23.7662C33.5758 24.0921 34.1031 24.0931 34.429 23.7684C34.7548 23.4438 34.7557 22.9163 34.4312 22.5905C34.1108 22.269 33.7682 21.9782 33.4085 21.7163L32.0046 17.7414V9.22741C41.1385 10.8841 48.087 18.8957 48.087 28.4999C48.087 32.6309 46.8005 36.4665 44.6085 39.6292Z" fill="#364859"/>
<path d="M28.5001 23.4551C25.7184 23.4551 23.4553 25.7181 23.4553 28.4999C23.4553 31.2817 25.7184 33.5447 28.5001 33.5447C31.2818 33.5447 33.5449 31.2817 33.5449 28.4999C33.5449 25.7181 31.2818 23.4551 28.5001 23.4551ZM28.5001 31.8787C26.637 31.8787 25.1212 30.3631 25.1212 28.4999C25.1212 26.6367 26.6369 25.121 28.5001 25.121C30.3633 25.121 31.879 26.6367 31.879 28.4999C31.879 30.3631 30.3633 31.8787 28.5001 31.8787Z" fill="#364859"/>
</svg>
