<svg width="144" height="100" viewBox="0 0 144 100" fill="none" xmlns="http://www.w3.org/2000/svg">
    <path d="M77.594 65.3733L72.8074 44.5972H67.4889L62.1704 56.317L75.4666 67.5041L77.594 65.3733Z" fill="#364859"/>
    <path fill-rule="evenodd" clip-rule="evenodd" d="M67.1464 44.0645H73.2305L78.1785 65.5412L75.4979 68.2262L61.5191 56.4648L67.1464 44.0645ZM67.8313 45.1299L62.8217 56.1693L75.4353 66.7821L77.0095 65.2054L72.3843 45.1299H67.8313Z" fill="#364859"/>
    <path fill-rule="evenodd" clip-rule="evenodd" d="M90.3584 13.6995C90.3584 12.2284 91.549 11.0359 93.0177 11.0359H112.164V40.3355C112.164 41.8065 110.974 42.9991 109.505 42.9991C108.036 42.9991 106.846 41.8065 106.846 40.3355V16.3631H93.0177C91.549 16.3631 90.3584 15.1706 90.3584 13.6995Z" fill="#364859"/>
    <path fill-rule="evenodd" clip-rule="evenodd" d="M55.2563 93.6074C64.6558 93.6074 72.2755 85.9752 72.2755 76.5604C72.2755 67.1456 64.6558 59.5134 55.2563 59.5134C45.8569 59.5134 38.2371 67.1456 38.2371 76.5604C38.2371 85.9752 45.8569 93.6074 55.2563 93.6074ZM55.2563 100C68.1806 100 78.6577 89.5057 78.6577 76.5604C78.6577 63.615 68.1806 53.1207 55.2563 53.1207C42.3321 53.1207 31.855 63.615 31.855 76.5604C31.855 89.5057 42.3321 100 55.2563 100Z" fill="#364859"/>
    <path fill-rule="evenodd" clip-rule="evenodd" d="M112.696 94.6728C120.333 94.6728 126.524 88.4716 126.524 80.8221C126.524 73.1726 120.333 66.9714 112.696 66.9714C105.059 66.9714 98.868 73.1726 98.868 80.8221C98.868 88.4716 105.059 94.6728 112.696 94.6728ZM112.696 100C123.27 100 131.843 91.4138 131.843 80.8221C131.843 70.2305 123.27 61.6442 112.696 61.6442C102.122 61.6442 93.5495 70.2305 93.5495 80.8221C93.5495 91.4138 102.122 100 112.696 100Z" fill="#364859"/>
    <path d="M53.1289 74.4295H57.3837V78.6912H53.1289V74.4295Z" fill="#364859"/>
    <path d="M110.569 78.6912H114.824V82.953H110.569V78.6912Z" fill="#364859"/>
    <path d="M76.5303 79.7567H90.3584L91.2071 75.5062C91.7011 73.0323 92.6297 70.666 93.9498 68.5173L94.411 67.7666C95.6012 65.8295 97.106 64.1052 98.8636 62.6649C100.973 60.9366 103.406 59.6493 106.02 58.8791L106.314 58.7926C109.462 57.8651 112.782 57.6797 116.014 58.251L116.57 58.3493C118.934 58.7672 121.211 59.5828 123.303 60.7616L124.893 61.6573C127.366 63.0509 129.491 64.9896 131.106 67.3268C132.643 69.5496 133.681 72.0789 134.15 74.7412L135.034 79.7567H139.82L143.849 63.167C144.315 61.2474 143.683 59.2269 142.205 57.9179L118.46 36.8781C117.488 36.0166 116.234 35.541 114.936 35.541H106.846V48.859H88.7629C85.8255 48.859 83.4444 51.244 83.4444 54.1862V62.7097H71.7437L76.5303 79.7567Z" fill="#364859"/>
    <path d="M36.1097 68.0369H32.9187C28.8064 68.0369 25.4728 71.3759 25.4728 75.4949V76.0276C25.4728 80.1466 28.8064 83.4857 32.9187 83.4857H36.1097V68.0369Z" fill="#364859"/>
    <path fill-rule="evenodd" clip-rule="evenodd" d="M24.9409 75.4949C24.9409 71.0817 28.5127 67.5041 32.9187 67.5041H36.6416V84.0184H32.9187C28.5127 84.0184 24.9409 80.4408 24.9409 76.0276V75.4949ZM32.9187 68.5696C29.1001 68.5696 26.0046 71.6702 26.0046 75.4949V76.0276C26.0046 79.8524 29.1001 82.953 32.9187 82.953H35.5779V68.5696H32.9187Z" fill="#364859"/>
    <path d="M19.0223 47.2912L61.1294 22.6824C62.0975 18.5286 65.1738 10.3368 68.4244 8.30217C72.4834 5.7615 78.0699 4.09955 80.5811 5.51274C83.0923 6.92593 84.2339 8.02238 84.4841 8.6551C84.7342 9.28782 85.7778 9.64804 82.0012 11.8178C78.98 13.5536 76.3193 15.4633 75.3666 16.2011C74.9012 16.6519 74.2269 17.9854 75.2534 19.7134C76.28 21.4415 78.1714 24.5973 78.9888 25.9591C79.5505 26.4392 81.076 27.1791 82.6845 26.2982C84.2929 25.4172 88.6328 22.7837 90.6016 21.577C91.1958 21.4699 92.493 21.824 92.9283 24.0973C93.4726 26.9389 93.6386 29.4321 90.0611 32.4739C86.1109 35.8325 83.633 37.1627 79.8614 37.4999C76.8441 37.7697 71.325 36.5306 68.9426 35.8774L26.0421 60.7586C23.4031 62.3324 17.328 64.3539 14.1398 59.8504C10.1547 54.2209 15.3285 49.45 19.0223 47.2912Z" fill="#364859"/>
    <path d="M17.4674 29.0818C16.99 23.1296 21.411 17.9184 27.342 17.4424C33.273 16.9664 38.468 21.4057 38.9454 27.3579C39.0399 28.536 38.9425 29.685 38.6795 30.7741L25.4138 38.6638C21.1378 37.5102 17.8429 33.7641 17.4674 29.0818Z" fill="#364859"/>
    <path fill-rule="evenodd" clip-rule="evenodd" d="M25.0719 9.84574C15.1222 11.1747 8.1341 20.3468 9.46346 30.3324C10.1401 35.4152 12.8365 39.7248 16.6419 42.5636L12.7185 47.8618C7.54613 44.0033 3.86344 38.1247 2.94202 31.2034C1.13145 17.6032 10.6492 5.11076 24.2006 3.30079C37.752 1.49082 50.2053 11.0487 52.0159 24.6489L45.4944 25.52C44.1651 15.5344 35.0216 8.51683 25.0719 9.84574Z" fill="#364859"/>
    <path d="M18.9673 4.49937C18.7267 2.69203 19.9915 1.03191 21.7924 0.791382L27.4986 0.0292333C29.2995 -0.211294 30.9544 1.05886 31.195 2.8662C31.4356 4.67353 30.1708 6.33366 28.3699 6.57418L22.6637 7.33633C20.8628 7.57686 19.2079 6.30671 18.9673 4.49937Z" fill="#364859"/>
    <path d="M38.4104 5.01052C39.5714 3.60868 41.6455 3.41735 43.043 4.58317L47.4712 8.27728C48.8687 9.44311 49.0604 11.5246 47.8994 12.9265C46.7384 14.3283 44.6644 14.5196 43.2669 13.3538L38.8386 9.65971C37.4411 8.49388 37.2494 6.41237 38.4104 5.01052Z" fill="#364859"/>
    <path d="M4.24626 17.6323C2.83243 16.4865 2.61131 14.4079 3.75237 12.9897L7.368 8.49577C8.50906 7.07753 10.5802 6.85669 11.994 8.00252C13.4079 9.14834 13.629 11.2269 12.4879 12.6452L8.8723 17.1391C7.73124 18.5573 5.66009 18.7782 4.24626 17.6323Z" fill="#364859"/>
    <path d="M4.67715 37.2843C2.88178 37.5629 1.20054 36.3281 0.921991 34.5262L0.0393611 28.8167C-0.239189 27.0149 0.990435 25.3283 2.7858 25.0497C4.58117 24.7711 6.26241 26.0059 6.54096 27.8078L7.42359 33.5173C7.70214 35.3191 6.47252 37.0057 4.67715 37.2843Z" fill="#364859"/>
</svg>
