<svg width="42" height="51" viewBox="0 0 42 51" fill="none" xmlns="http://www.w3.org/2000/svg">
    <path d="M10.2885 43.6333C10.2885 42.0685 11.5339 40.8 13.0702 40.8H38.9401C40.63 40.8 42 42.1954 42 43.9167V44.7667C42 46.0185 41.0037 47.0333 39.7746 47.0333L39.5848 45.873C39.5262 45.5152 39.4155 45.1684 39.2563 44.844C38.8729 44.063 38.2266 43.4486 37.4352 43.1127L37.0873 42.9651C35.9587 42.4861 34.6891 42.4861 33.5605 42.9651L33.2125 43.1127C32.4212 43.4486 31.7749 44.063 31.3915 44.844C31.2323 45.1684 31.1216 45.5152 31.063 45.873L30.8732 47.0333H23.0844L22.8062 43.0667L20.859 41.65L18.6336 41.0833L16.4083 41.65L14.7392 43.0667L14.1829 47.0333H13.0702C11.5339 47.0333 10.2885 45.7648 10.2885 44.2V43.6333Z" fill="#364859"/>
    <path fill-rule="evenodd" clip-rule="evenodd" d="M18.6336 49.3C20.7845 49.3 22.528 47.5241 22.528 45.3333C22.528 43.1426 20.7845 41.3667 18.6336 41.3667C16.4828 41.3667 14.7392 43.1426 14.7392 45.3333C14.7392 47.5241 16.4828 49.3 18.6336 49.3ZM18.6336 51C21.7062 51 24.1971 48.4629 24.1971 45.3333C24.1971 42.2037 21.7062 39.6667 18.6336 39.6667C15.5611 39.6667 13.0702 42.2037 13.0702 45.3333C13.0702 48.4629 15.5611 51 18.6336 51Z" fill="#364859"/>
    <path fill-rule="evenodd" clip-rule="evenodd" d="M35.3239 49.8667C36.8602 49.8667 38.1056 48.5981 38.1056 47.0333C38.1056 45.4685 36.8602 44.2 35.3239 44.2C33.7876 44.2 32.5422 45.4685 32.5422 47.0333C32.5422 48.5981 33.7876 49.8667 35.3239 49.8667ZM35.3239 51C37.4747 51 39.2183 49.2241 39.2183 47.0333C39.2183 44.8426 37.4747 43.0667 35.3239 43.0667C33.1731 43.0667 31.4295 44.8426 31.4295 47.0333C31.4295 49.2241 33.1731 51 35.3239 51Z" fill="#364859"/>
    <path d="M34.7676 46.4667H35.8802V47.6H34.7676V46.4667Z" fill="#364859"/>
    <path d="M18.0773 44.7667H19.19V45.9H18.0773V44.7667Z" fill="#364859"/>
    <path d="M23.6407 37.9667H31.9858V40.8H23.6407V37.9667Z" fill="#364859"/>
    <path fill-rule="evenodd" clip-rule="evenodd" d="M16.7977 12.5233L9.2871 2.32333L10.1772 1.64333L17.6879 11.8433L16.7977 12.5233Z" fill="#364859"/>
    <path d="M13.0702 36.2667H42V37.9667H13.0702V36.2667Z" fill="#364859"/>
    <path d="M14.7392 36.55L19.3786 21.5861C19.6173 20.8163 20.0951 20.1463 20.74 19.677C21.3602 19.2259 22.1032 18.9833 22.8653 18.9833H30.1579C30.7238 18.9833 31.1996 19.416 31.2635 19.9887L32.5422 31.45H37.8413C38.731 31.45 39.5926 31.7677 40.2761 32.3479C40.6792 32.69 41.0085 33.1134 41.2431 33.5915L41.4837 34.0816C41.8232 34.7733 42 35.5359 42 36.3092C42 36.8949 41.5062 37.3543 40.9334 37.3012L29.7605 36.2667C30.3168 35.6056 31.3739 33.7167 31.1513 31.45C30.9288 29.1833 30.1314 23.1389 29.7605 20.4H22.8062C22.3426 20.4 21.2484 20.74 20.5808 22.1C19.9132 23.46 17.3355 32.3 16.1301 36.55H14.7392Z" fill="#364859"/>
    <path fill-rule="evenodd" clip-rule="evenodd" d="M9.17583 0C9.79035 0 10.2885 0.507411 10.2885 1.13333V5.39471L23.0573 15.4808C23.6008 15.9101 23.9189 16.5714 23.9189 17.272V19.55H21.6935V17.272L9.5399 7.67178L2.64859 20.9303L0.681837 19.8697L8.06315 5.66851V1.13333C8.06315 0.507411 8.56131 0 9.17583 0Z" fill="#364859"/>
    <path d="M0.830686 19.5499L6.86391 23.1572L7.53448 22.139C7.61455 22.0175 7.79336 22.0498 7.81527 22.1945C8.04089 23.684 7.49235 25.8818 4.61861 26.2068C1.59716 26.5486 -0.838173 23.3704 0.274358 20.6833L0.830686 19.5499Z" fill="#364859"/>
</svg>
