<svg width="130" height="130" viewBox="0 0 130 130" fill="none" xmlns="http://www.w3.org/2000/svg">
    <path d="M94.8728 115.477H2.37094C0.390053 115.477 -0.714218 113.812 0.518379 112.684L4.09241 109.414C4.54136 109.003 5.22348 108.764 5.94499 108.764H92.3761L94.8728 115.477Z" fill="#364859"/>
    <path d="M110.655 0H102.211C100.916 0 99.8661 0.753175 99.8661 1.68226V91.8779H110.655V6.37724V0Z" fill="#364859"/>
    <path d="M110.655 0H127.829C129.124 0 129.826 0.753175 129.826 1.68226V4.96637C129.826 5.89546 129.124 6.37724 127.829 6.37724H110.655V0Z" fill="#364859"/>
    <path fill-rule="evenodd" clip-rule="evenodd" d="M107.942 120.718C114.857 120.718 120.462 115.318 120.462 108.657C120.462 101.997 114.857 96.597 107.942 96.597C101.028 96.597 95.4232 101.997 95.4232 108.657C95.4232 115.318 101.028 120.718 107.942 120.718ZM107.942 129.906C120.124 129.906 130 120.393 130 108.657C130 96.9217 120.124 87.4082 107.942 87.4082C95.7603 87.4082 85.8848 96.9217 85.8848 108.657C85.8848 120.393 95.7603 129.906 107.942 129.906Z" fill="#364859"/>
    <path d="M103.769 104.637H112.115V112.677H103.769V104.637Z" fill="#364859"/>
    <path fill-rule="evenodd" clip-rule="evenodd" d="M11.1503 127.019C13.3933 127.019 15.2117 125.268 15.2117 123.107C15.2117 120.946 13.3933 119.194 11.1503 119.194C8.90731 119.194 7.08898 120.946 7.08898 123.107C7.08898 125.268 8.90731 127.019 11.1503 127.019ZM11.1503 130C15.1023 130 18.306 126.914 18.306 123.107C18.306 119.3 15.1023 116.213 11.1503 116.213C7.19834 116.213 3.99463 119.3 3.99463 123.107C3.99463 126.914 7.19834 130 11.1503 130Z" fill="#364859"/>
    <path d="M9.79639 121.803H12.5039V124.411H9.79639V121.803Z" fill="#364859"/>
    <path fill-rule="evenodd" clip-rule="evenodd" d="M26.1302 127.019C28.3733 127.019 30.1916 125.268 30.1916 123.107C30.1916 120.946 28.3733 119.194 26.1302 119.194C23.8872 119.194 22.0689 120.946 22.0689 123.107C22.0689 125.268 23.8872 127.019 26.1302 127.019ZM26.1302 130C30.0822 130 33.2859 126.914 33.2859 123.107C33.2859 119.3 30.0822 116.213 26.1302 116.213C22.1783 116.213 18.9745 119.3 18.9745 123.107C18.9745 126.914 22.1783 130 26.1302 130Z" fill="#364859"/>
    <path d="M24.7762 121.803H27.4838V124.411H24.7762V121.803Z" fill="#364859"/>
    <rect x="11.9839" y="49.6636" width="69.9063" height="57.6099" fill="#364859"/>
    <rect x="45.9384" y="20.8589" width="35.9518" height="26.8184" fill="#364859"/>
    <rect x="22.9692" y="32.7778" width="20.9719" height="14.8991" fill="#364859"/>
</svg>
