<svg width="76" height="60" viewBox="0 0 76 60" fill="none" xmlns="http://www.w3.org/2000/svg">
<path fill-rule="evenodd" clip-rule="evenodd" d="M67.4194 25.8643H60.0645C59.633 25.8643 59.2236 25.9521 58.8387 26.0887V14.552L61.6777 13.6108C62.179 13.4438 62.5161 12.9793 62.5161 12.4539V8.7965C62.5161 8.27105 62.179 7.80657 61.6777 7.63954L58.7051 6.65449C58.2908 5.08546 56.8664 3.91998 55.1613 3.91998H40.7164C38.5492 3.91998 36.6663 5.30369 36.0301 7.3628L27.2877 35.6174H22.0645V38.0556H50.2581C54.9884 38.0556 58.8387 34.2276 58.8387 29.5217C58.8387 28.85 59.3879 28.3026 60.0645 28.3026H67.4194C70.7989 28.3026 73.5484 31.0371 73.5484 34.3983V49.0278C73.5484 49.6996 72.9992 50.247 72.3226 50.247H70.6677C69.6552 47.41 66.9376 45.3704 63.7419 45.3704C60.5463 45.3704 57.8286 47.41 56.8161 50.247H44.129C44.129 44.8694 39.7296 40.4939 34.3226 40.4939C28.9155 40.4939 24.5161 44.8694 24.5161 50.247H23.2903C22.6137 50.247 22.0645 49.6996 22.0645 49.0278V38.0556V35.6174V0H20.4993C19.8214 0 19.6129 0.789997 19.6129 1.46296V40.4939H17.1613V6.35824C17.1613 5.68528 16.6134 5.13911 15.9355 5.13911H14.7097V50.247C14.7097 50.9187 14.1605 51.4661 13.4839 51.4661H0V52.6852C0 53.3582 0.547935 53.9043 1.22581 53.9043H13.4839C15.5114 53.9043 17.1613 52.2634 17.1613 50.247V47.8087H19.6129V49.0278C19.6129 51.0443 21.2628 52.6852 23.2903 52.6852H24.8385C25.9319 56.8851 29.7626 60 34.3226 60C38.8826 60 42.7132 56.8851 43.8066 52.6852H56.3871C56.3871 56.7193 59.6857 60 63.7419 60C67.7981 60 71.0968 56.7193 71.0968 52.6852H72.3226C74.3501 52.6852 76 51.0443 76 49.0278V34.3983C76 29.6924 72.1497 25.8643 67.4194 25.8643ZM56.3871 28.3026V7.57737C56.3871 6.90563 55.8379 6.35824 55.1613 6.35824H40.7164C39.6328 6.35824 38.6901 7.04948 38.3739 8.07843L29.8533 35.6174H50.2581C53.2184 35.6174 55.6933 33.5193 56.2633 30.7409L56.3871 28.3026ZM58.8387 11.9809L60.0645 11.5749V9.67427L58.8387 9.2683V11.9809ZM17.1613 42.9322V45.3704H19.6129V42.9322H17.1613ZM26.9677 50.247C26.9677 54.2811 30.2664 57.5617 34.3226 57.5617C38.3788 57.5617 41.6774 54.2811 41.6774 50.247C41.6774 46.2128 38.3788 42.9322 34.3226 42.9322C30.2664 42.9322 26.9677 46.2128 26.9677 50.247ZM58.8387 52.6852C58.8387 55.3746 61.0378 57.5617 63.7419 57.5617C66.4461 57.5617 68.6452 55.3746 68.6452 52.6852C68.6452 49.9958 66.4461 47.8087 63.7419 47.8087C61.0378 47.8087 58.8387 49.9958 58.8387 52.6852Z" fill="#364859"/>
<path d="M72.3226 50.247C72.9992 50.247 73.5484 49.6996 73.5484 49.0278V34.3983C73.5484 31.0371 70.7989 28.3026 67.4194 28.3026H60.0645C59.3879 28.3026 58.8387 28.85 58.8387 29.5217C58.8387 34.2276 54.9884 38.0556 50.2581 38.0556H22.0645V49.0278C22.0645 49.6996 22.6137 50.247 23.2903 50.247H24.5161C24.5161 44.8694 28.9155 40.4939 34.3226 40.4939C39.7296 40.4939 44.129 44.8694 44.129 50.247H56.8161C57.8286 47.41 60.5463 45.3704 63.7419 45.3704C66.9376 45.3704 69.6552 47.41 70.6677 50.247H72.3226Z" fill="#364859"/>
<path d="M33.1346 48.9756H35.5862V51.4138H33.1346V48.9756Z" fill="#364859"/>
<path d="M62.3425 51.618H64.7941V54.0563H62.3425V51.618Z" fill="#364859"/>
</svg>
