<svg width="47" height="40" viewBox="0 0 47 40" fill="none" xmlns="http://www.w3.org/2000/svg">
    <path fill-rule="evenodd" clip-rule="evenodd" d="M9.24139 37.2806C11.3505 38.2458 13.8409 37.3144 14.8038 35.2004C15.7667 33.0863 14.8375 30.5901 12.7284 29.6249C10.6193 28.6598 8.12895 29.5911 7.16603 31.7052C6.20311 33.8192 7.13228 36.3154 9.24139 37.2806ZM8.27277 39.4072C11.5536 40.9086 15.4275 39.4598 16.9254 36.1713C18.4233 32.8828 16.9779 28.9998 13.697 27.4984C10.4162 25.997 6.5423 27.4458 5.04443 30.7343C3.54655 34.0228 4.99193 37.9058 8.27277 39.4072Z" fill="#364859"/>
    <path d="M34.9838 34.5983H42.447V36.936C42.447 37.4525 42.0294 37.8711 41.5141 37.8711H35.9167C35.4015 37.8711 34.9838 37.4525 34.9838 36.936V34.5983Z" fill="#364859"/>
    <path fill-rule="evenodd" clip-rule="evenodd" d="M34.7506 34.3645H42.6803V36.936C42.6803 37.5816 42.1582 38.1049 41.5141 38.1049H35.9167C35.2727 38.1049 34.7506 37.5816 34.7506 36.936V34.3645ZM35.2171 34.8321V36.936C35.2171 37.3234 35.5303 37.6374 35.9167 37.6374H41.5141C41.9006 37.6374 42.2138 37.3234 42.2138 36.936V34.8321H35.2171Z" fill="#364859"/>
    <path d="M10.0519 32.5181H11.9177V34.3883H10.0519V32.5181Z" fill="#364859"/>
    <path d="M9.79547 0H13.0606V28.0527H9.79547V0Z" fill="#364859"/>
    <path d="M16.845 33.6632H46.1786L42.403 31.3255H16.0926L16.845 33.6632Z" fill="#364859"/>
    <path fill-rule="evenodd" clip-rule="evenodd" d="M15.7722 31.0917H42.4693L47 33.897H16.6752L15.7722 31.0917ZM16.4129 31.5593L17.0149 33.4295H45.3573L42.3368 31.5593H16.4129Z" fill="#364859"/>
    <path d="M17.7251 12.1562H37.3161V29.4553H17.7251V12.1562Z" fill="#364859"/>
    <path d="M17.7251 3.27281H25.6548V11.2211H17.7251V3.27281Z" fill="#364859"/>
    <path d="M27.5206 5.14299H33.5845V11.2211H27.5206V5.14299Z" fill="#364859"/>
    <path fill-rule="evenodd" clip-rule="evenodd" d="M0 0.467545C0 0.209327 0.208837 0 0.466451 0H12.5942C12.8518 0 13.0606 0.209327 13.0606 0.467545C13.0606 0.725763 12.8518 0.935089 12.5942 0.935089H0.466451C0.208837 0.935089 0 0.725763 0 0.467545Z" fill="#364859"/>
</svg>
