<svg width="57" height="40" viewBox="0 0 57 40" fill="none" xmlns="http://www.w3.org/2000/svg">
    <path d="M25.2079 23.3333L22.9163 13.3333H20.37L17.8238 18.9744L24.1894 24.359L25.2079 23.3333Z" fill="#364859"/>
    <path fill-rule="evenodd" clip-rule="evenodd" d="M20.2061 13.0769H23.1188L25.4877 23.4142L24.2044 24.7065L17.512 19.0455L20.2061 13.0769ZM20.534 13.5897L18.1356 18.9032L24.1744 24.0114L24.928 23.2525L22.7137 13.5897H20.534Z" fill="#364859"/>
    <path fill-rule="evenodd" clip-rule="evenodd" d="M20.6246 1.28205C20.6246 0.573994 21.1946 0 21.8978 0H41.7585V11.2821C41.7585 11.9901 41.1885 12.5641 40.4854 12.5641C39.7823 12.5641 39.2123 11.9901 39.2123 11.2821V2.5641H21.8978C21.1946 2.5641 20.6246 1.99011 20.6246 1.28205Z" fill="#364859"/>
    <path fill-rule="evenodd" clip-rule="evenodd" d="M14.5136 36.9231C19.0136 36.9231 22.6616 33.2495 22.6616 28.718C22.6616 24.1864 19.0136 20.5128 14.5136 20.5128C10.0136 20.5128 6.36563 24.1864 6.36563 28.718C6.36563 33.2495 10.0136 36.9231 14.5136 36.9231ZM14.5136 40C20.7012 40 25.7171 34.9489 25.7171 28.718C25.7171 22.487 20.7012 17.4359 14.5136 17.4359C8.32611 17.4359 3.31013 22.487 3.31013 28.718C3.31013 34.9489 8.32611 40 14.5136 40Z" fill="#364859"/>
    <path fill-rule="evenodd" clip-rule="evenodd" d="M42.0131 37.4359C45.6694 37.4359 48.6334 34.4511 48.6334 30.7692C48.6334 27.0873 45.6694 24.1026 42.0131 24.1026C38.3569 24.1026 35.3929 27.0873 35.3929 30.7692C35.3929 34.4511 38.3569 37.4359 42.0131 37.4359ZM42.0131 40C47.0757 40 51.1796 35.8672 51.1796 30.7692C51.1796 25.6712 47.0757 21.5385 42.0131 21.5385C36.9506 21.5385 32.8466 25.6712 32.8466 30.7692C32.8466 35.8672 36.9506 40 42.0131 40Z" fill="#364859"/>
    <path d="M13.4951 27.6923H15.5321V29.7436H13.4951V27.6923Z" fill="#364859"/>
    <path d="M40.9946 29.7436H43.0316V31.7949H40.9946V29.7436Z" fill="#364859"/>
    <path d="M24.6986 30.2564H31.3189L31.7252 28.2106C31.9617 27.0198 32.4063 25.8808 33.0383 24.8467L33.2591 24.4853C33.8289 23.5529 34.5493 22.723 35.3908 22.0297C36.4004 21.1978 37.5655 20.5782 38.817 20.2076L38.9577 20.1659C40.465 19.7195 42.0544 19.6303 43.6016 19.9052L43.868 19.9525C44.9997 20.1537 46.0896 20.5463 47.0913 21.1136L47.8523 21.5447C49.0365 22.2155 50.0538 23.1487 50.8272 24.2736C51.5627 25.3435 52.0598 26.5609 52.2843 27.8424L52.7074 30.2564H54.999L56.9278 22.2714C57.151 21.3474 56.848 20.375 56.1408 19.7449L44.7726 9.61796C44.3071 9.20327 43.7071 8.97436 43.0855 8.97436H39.2123V15.3846H30.555C29.1488 15.3846 28.0088 16.5326 28.0088 17.9487V22.0513H22.407L24.6986 30.2564Z" fill="#364859"/>
    <path d="M5.34713 24.6154H3.81938C1.85062 24.6154 0.254625 26.2226 0.254625 28.2051V28.4615C0.254625 30.4441 1.85062 32.0513 3.81938 32.0513H5.34713V24.6154Z" fill="#364859"/>
    <path fill-rule="evenodd" clip-rule="evenodd" d="M0 28.2051C0 26.081 1.70999 24.359 3.81938 24.359H5.60175V32.3077H3.81938C1.70999 32.3077 0 30.5857 0 28.4615V28.2051ZM3.81938 24.8718C1.99124 24.8718 0.50925 26.3642 0.50925 28.2051V28.4615C0.50925 30.3025 1.99124 31.7949 3.81938 31.7949H5.0925V24.8718H3.81938Z" fill="#364859"/>
</svg>
