<svg width="122" height="100" viewBox="0 0 122 100" fill="none" xmlns="http://www.w3.org/2000/svg">
    <path d="M0 95.7836C0 93.4549 1.88346 91.5672 4.20684 91.5672H117.791C120.115 91.5672 121.998 93.4549 121.998 95.7836C121.998 98.1123 120.115 100 117.791 100H4.20684C1.88347 100 0 98.1123 0 95.7836Z" fill="#364859"/>
    <path d="M0.00176067 81.0155C0.00176067 79.1859 1.48163 77.7027 3.30713 77.7027H118.695C120.52 77.7027 122 79.1859 122 81.0155C122 82.8452 120.52 84.3284 118.695 84.3284H3.30713C1.48162 84.3284 0.00176067 82.8452 0.00176067 81.0155Z" fill="#364859"/>
    <path d="M9.01465 83.7367H18.6303V91.5672H9.01465V83.7367Z" fill="#364859"/>
    <path d="M55.8908 83.7367H65.5064V91.5672H55.8908V83.7367Z" fill="#364859"/>
    <path d="M103.368 83.7367H112.984V91.5672H103.368V83.7367Z" fill="#364859"/>
    <path fill-rule="evenodd" clip-rule="evenodd" d="M109.98 32.9607H65.5082V71.5108H109.98V32.9607ZM62.5033 29.949V74.5225H112.985V29.949H62.5033Z" fill="#364859"/>
    <path d="M62.5033 29.949H112.985V43.2006H62.5033V29.949Z" fill="#364859"/>
    <path d="M62.5033 45.0076H112.985V58.8616H62.5033V45.0076Z" fill="#364859"/>
    <path d="M62.5033 60.6686H112.985V73.9202H62.5033V60.6686Z" fill="#364859"/>
    <path fill-rule="evenodd" clip-rule="evenodd" d="M56.4207 33.3266H12.0213V71.5116H56.4207V33.3266ZM9.01641 30.3149V74.5234H59.4256V30.3149H9.01641Z" fill="#364859"/>
    <path d="M9.01641 30.3149H59.4256V43.5774H9.01641V30.3149Z" fill="#364859"/>
    <path d="M9.01641 45.4723H59.4256V58.7348H9.01641V45.4723Z" fill="#364859"/>
    <path d="M9.01641 60.6297H59.4256V73.8922H9.01641V60.6297Z" fill="#364859"/>
    <path fill-rule="evenodd" clip-rule="evenodd" d="M38.4174 3.01172H12.0213V25.408H38.4174V3.01172ZM9.01641 0V28.4197H41.4223V0H9.01641Z" fill="#364859"/>
    <path d="M9.01641 0H41.4223V8.52592H9.01641V0Z" fill="#364859"/>
    <path d="M9.01641 9.7431H41.4223V18.269H9.01641V9.7431Z" fill="#364859"/>
    <path d="M9.01641 19.4886H41.4223V28.0145H9.01641V19.4886Z" fill="#364859"/>
    <path fill-rule="evenodd" clip-rule="evenodd" d="M74.334 3.01172H47.9379V25.408H74.334V3.01172ZM44.933 0V28.4197H77.3389V0H44.933Z" fill="#364859"/>
    <path d="M44.933 0H77.3389V8.52592H44.933V0Z" fill="#364859"/>
    <path d="M44.933 9.7431H77.3389V18.269H44.933V9.7431Z" fill="#364859"/>
    <path d="M44.933 19.4886H77.3389V28.0145H44.933V19.4886Z" fill="#364859"/>
</svg>
