<svg width="130" height="130" viewBox="0 0 130 130" fill="none" xmlns="http://www.w3.org/2000/svg">
    <path d="M10.5868 56.3459C10.0522 55.3335 10.3268 54.1705 11.2001 53.7482L12.7814 52.9835C13.6548 52.5612 14.7961 53.0396 15.3307 54.052L50.372 120.41C51 121.5 51 122 51.5 123L46.5001 123C45.5 123 45.0074 122.678 44.5001 122L10.5868 56.3459Z" fill="#364859"/>
    <path d="M44.3138 121.168C44.3138 122.184 45.4384 123.007 46.8256 123.007H127.626C129.609 123.007 130.715 121.331 129.481 120.196L125.902 116.903C125.453 116.49 124.77 116.249 124.047 116.249H46.8256C45.4384 116.249 44.3138 117.072 44.3138 118.088V121.168Z" fill="#364859"/>
    <path d="M123.7 123.696C123.7 126.114 121.643 128.074 119.107 128.074C116.57 128.074 114.514 126.114 114.514 123.696H123.7Z" fill="#364859"/>
    <path d="M44.1332 0H52.5877C53.8847 0 54.9361 0.758275 54.9361 1.69365V116.555H44.1332V6.42042V0Z" fill="#364859"/>
    <path d="M44.1332 0H34.2697C32.9727 0 31.9213 0.758275 31.9213 1.69365V4.72677C31.9213 5.66215 32.9727 6.42042 34.2697 6.42042H44.1332V0Z" fill="#364859"/>
    <path d="M56.7064 12.5043C56.7064 12.1301 57.0235 11.8267 57.4146 11.8267H58.4768C58.8679 11.8267 59.1849 12.1301 59.1849 12.5043V116.248H56.7064V12.5043Z" fill="#364859"/>
    <path fill-rule="evenodd" clip-rule="evenodd" d="M17.6325 57.2956C17.2848 56.6372 17.5616 55.8333 18.2507 55.5001L25.1138 52.1814C26.6644 51.4316 28.5556 52.0247 29.3379 53.5062L32.8437 60.1452C33.3029 61.0148 33.2924 62.0439 32.8154 62.9059L27.8275 71.9201C27.4664 72.5727 26.6206 72.8226 25.9384 72.4782C25.2562 72.1338 24.9959 71.3255 25.357 70.6728L30.3449 61.6587C30.3979 61.5629 30.3991 61.4486 30.348 61.3519L26.8422 54.713C26.7553 54.5484 26.5452 54.4825 26.3729 54.5658L19.5098 57.8844C18.8207 58.2177 17.9801 57.9541 17.6325 57.2956Z" fill="#364859"/>
    <path fill-rule="evenodd" clip-rule="evenodd" d="M11.548 59.8636C11.2003 59.2052 10.3598 58.9416 9.67066 59.2748L2.80762 62.5935C1.25702 63.3433 0.634193 65.1521 1.4165 66.6335L5.02297 73.4631C5.47743 74.3237 6.3365 74.9231 7.33271 75.0746L17.9483 76.6889C18.7105 76.8048 19.4274 76.3079 19.5496 75.5791C19.6718 74.8503 19.153 74.1656 18.3909 74.0497L7.77526 72.4354C7.66457 72.4185 7.56912 72.3519 7.51862 72.2563L3.91215 65.4267C3.82523 65.2621 3.89443 65.0611 4.06672 64.9778L10.9298 61.6592C11.6189 61.3259 11.8957 60.522 11.548 59.8636Z" fill="#364859"/>
    <path fill-rule="evenodd" clip-rule="evenodd" d="M35.9225 19.1937C36.5712 18.1743 37.7014 17.5562 38.9163 17.5562H45.7301V21.0697H38.9163L24.3337 43.9844L45.7301 43.9844V47.4979H24.3337C21.5453 47.4979 19.851 44.448 21.3399 42.1084L35.9225 19.1937Z" fill="#364859"/>
    <path fill-rule="evenodd" clip-rule="evenodd" d="M31.1886 126.155C34.0666 126.155 36.3997 123.895 36.3997 121.107C36.3997 118.32 34.0666 116.06 31.1886 116.06C28.3106 116.06 25.9775 118.32 25.9775 121.107C25.9775 123.895 28.3106 126.155 31.1886 126.155ZM31.1886 130C36.2594 130 40.3701 126.019 40.3701 121.107C40.3701 116.196 36.2594 112.214 31.1886 112.214C26.1178 112.214 22.0071 116.196 22.0071 121.107C22.0071 126.019 26.1178 130 31.1886 130Z" fill="#364859"/>
    <path d="M26.9641 107.982C26.9641 107.723 27.3185 107.514 27.7556 107.514H39.6275C40.0646 107.514 40.419 107.723 40.419 107.982V111.261C40.419 111.52 40.0646 111.73 39.6275 111.73H27.7556C27.3185 111.73 26.9641 111.52 26.9641 111.261V107.982Z" fill="#364859"/>
    <path d="M29.4513 119.425H32.9254V122.79H29.4513V119.425Z" fill="#364859"/>
</svg>
