<svg width="69" height="52" viewBox="0 0 69 52" fill="none" xmlns="http://www.w3.org/2000/svg">
<path d="M54.7948 47.5736H57.9501C58.6745 47.5736 59.2638 46.9661 59.2638 46.2097V43.0233C59.2638 42.2794 58.6745 41.6594 57.9501 41.6594H54.7948C54.0704 41.6594 53.4811 42.267 53.4811 43.0233V46.2097C53.4811 46.9661 54.0704 47.5736 54.7948 47.5736ZM54.7948 42.9737H57.9501L57.9747 43.0233L57.9501 46.2593L54.7825 46.2097L54.7948 42.9737Z" fill="#364859"/>
<path d="M53.4936 22.3919H56.6244C57.361 22.3919 57.9626 21.7968 57.9626 21.0653V17.854C57.9626 17.1225 57.361 16.5273 56.6244 16.5273H53.4936C52.7569 16.5273 52.1553 17.1225 52.1553 17.854V21.0653C52.1553 21.7968 52.7569 22.3919 53.4936 22.3919ZM53.4936 17.8168H56.6244L56.6735 17.8416L56.6244 21.0777L53.4568 21.0529L53.4936 17.8168Z" fill="#364859"/>
<path d="M46.5812 22.3919H49.712C50.4486 22.3919 51.0502 21.7968 51.0502 21.0653V17.854C51.0502 17.1225 50.4486 16.5273 49.712 16.5273H46.5812C45.8445 16.5273 45.2429 17.1225 45.2429 17.854V21.0653C45.2429 21.7968 45.8322 22.3919 46.5812 22.3919ZM46.5812 17.8168H49.712L49.7611 17.8416L49.712 21.0777L46.5443 21.0529L46.5812 17.8168Z" fill="#364859"/>
<path d="M68.3493 0H17.5569H14.2543H9.53968H6.23701C5.88096 0 5.5863 0.297568 5.5863 0.657129V25.3429H3.95338H0.650712C0.294662 25.3429 0 25.6404 0 26V51.3429C0 51.7024 0.294662 52 0.650712 52H11.9706H62.763C63.119 52 63.4137 51.7024 63.4137 51.3429V26.6447H68.3493C68.7053 26.6447 69 26.3472 69 25.9876V0.657129C69 0.297568 68.7053 0 68.3493 0ZM11.1726 1.30186V14.3081C11.1726 14.6676 11.4673 14.9652 11.8233 14.9652C12.1794 14.9652 12.474 14.6676 12.474 14.3081V1.30186H13.6158V16.1183H10.1781V1.30186H11.1726ZM6.87544 1.30186H8.88897V16.7754C8.88897 17.135 9.18363 17.4325 9.53968 17.4325H14.2543C14.6103 17.4325 14.905 17.135 14.905 16.7754V1.30186H16.9185V25.3429H11.9706H8.66797H6.87544V1.30186ZM5.5863 26.6447V39.6509C5.5863 40.0105 5.88096 40.3081 6.23701 40.3081C6.59306 40.3081 6.88772 40.0105 6.88772 39.6509V26.6447H8.02954V41.4611H4.59181V26.6447H5.5863ZM1.28915 26.6447H3.30267V42.1183C3.30267 42.4778 3.59733 42.7754 3.95338 42.7754H8.66797C9.02402 42.7754 9.31868 42.4778 9.31868 42.1183V26.6447H11.3322V50.6857H1.28915V26.6447ZM62.1123 50.6857H12.6214V26.6447H17.5569H62.1246V50.6857H62.1123ZM67.6986 25.3429H62.763H18.1954V1.30186H67.6986V25.3429Z" fill="#364859"/>
<path d="M40.9703 47.5736H44.1256C44.85 47.5736 45.4393 46.9661 45.4393 46.2097V43.0233C45.4393 42.2794 44.85 41.6594 44.1256 41.6594H40.9703C40.2459 41.6594 39.6566 42.267 39.6566 43.0233V46.2097C39.6566 46.9661 40.2459 47.5736 40.9703 47.5736ZM40.9703 42.9737H44.1256L44.1502 43.0233L44.1256 46.2593L40.958 46.2097L40.9703 42.9737Z" fill="#364859"/>
<path d="M47.8827 47.5736H51.038C51.7624 47.5736 52.3517 46.9661 52.3517 46.2097V43.0233C52.3517 42.2794 51.7624 41.6594 51.038 41.6594H47.8827C47.1583 41.6594 46.569 42.267 46.569 43.0233V46.2097C46.569 46.9661 47.1583 47.5736 47.8827 47.5736ZM47.8827 42.9737H51.038L51.0626 43.0233L51.038 46.2593L47.8704 46.2097L47.8827 42.9737Z" fill="#364859"/>
<path d="M60.4056 22.3919H63.5364C64.273 22.3919 64.8746 21.7968 64.8746 21.0653V17.854C64.8746 17.1225 64.273 16.5273 63.5364 16.5273H60.4056C59.669 16.5273 59.0674 17.1225 59.0674 17.854V21.0653C59.0674 21.7968 59.669 22.3919 60.4056 22.3919ZM60.4056 17.8168H63.5364L63.5855 17.8416L63.5364 21.0777L60.3688 21.0529L60.4056 17.8168Z" fill="#364859"/>
</svg>
