<svg width="130" height="130" viewBox="0 0 130 130" fill="none" xmlns="http://www.w3.org/2000/svg">
    <path d="M14.9119 2.43851C14.9119 1.09176 15.8249 0 16.9511 0H18.9903C20.1165 0 21.0295 1.09176 21.0295 2.43851V90.7126C21.0295 91.2513 20.6643 91.688 20.2138 91.688H15.7276C15.2771 91.688 14.9119 91.2513 14.9119 90.7126V2.43851Z" fill="#364859"/>
    <path d="M14.8848 100.054C14.8848 99.6104 15.245 99.2505 15.6894 99.2505H20.1146C20.5589 99.2505 20.9192 99.6104 20.9192 100.054V102.868C20.9192 103.312 20.5589 103.672 20.1146 103.672H15.6894C15.245 103.672 14.8848 103.312 14.8848 102.868V100.054Z" fill="#364859"/>
    <path d="M8.0459 111.711C8.0459 110.601 8.94646 109.701 10.0574 109.701H25.3445C26.4554 109.701 27.3559 110.601 27.3559 111.711V122.162C27.3559 123.272 26.4554 124.172 25.3445 124.172H10.0574C8.94646 124.172 8.0459 123.272 8.0459 122.162V111.711Z" fill="#364859"/>
    <path d="M11.6665 106.084C11.6665 104.974 12.5671 104.074 13.678 104.074H22.1261C23.237 104.074 24.1376 104.974 24.1376 106.084V106.887C24.1376 107.997 23.237 108.897 22.1261 108.897H13.678C12.5671 108.897 11.6665 107.997 11.6665 106.887V106.084Z" fill="#364859"/>
    <path d="M22.9306 124.976C22.9306 127.751 20.6792 130 17.9019 130C15.1247 130 12.8733 127.751 12.8733 124.976H22.9306Z" fill="#364859"/>
    <path d="M123.102 124.976C123.102 127.751 120.85 130 118.073 130C115.296 130 113.044 127.751 113.044 124.976H123.102Z" fill="#364859"/>
    <path d="M10.6606 92.417C9.54973 92.417 8.64917 93.3168 8.64917 94.4268V96.6375C8.64917 97.7475 9.54973 98.6473 10.6606 98.6473H19.8462C20.4024 98.6473 20.9337 98.8774 21.314 99.2829L44.0583 123.536C44.4386 123.941 44.9699 124.172 45.5261 124.172H127.985C129.668 124.172 130.607 122.228 129.559 120.911L126.521 117.093C126.14 116.613 125.56 116.333 124.947 116.333H51.145C50.5966 116.333 50.0719 116.11 49.6925 115.714L27.9497 93.0365C27.5703 92.6408 27.0457 92.417 26.4972 92.417L10.6606 92.417Z" fill="#364859"/>
    <path fill-rule="evenodd" clip-rule="evenodd" d="M21.7238 6.97648C21.7238 6.0885 22.4442 5.36865 23.3329 5.36865H32.1834C34.183 5.36865 35.804 6.98831 35.804 8.98626V17.9398C35.804 19.1127 35.2349 20.2128 34.2773 20.8911L24.2636 27.984C23.5385 28.4975 22.5341 28.3266 22.0202 27.6022C21.5062 26.8778 21.6773 25.8742 22.4023 25.3607L32.416 18.2677C32.5224 18.1924 32.5857 18.0702 32.5857 17.9398V8.98626C32.5857 8.76426 32.4056 8.5843 32.1834 8.5843H23.3329C22.4442 8.5843 21.7238 7.86445 21.7238 6.97648Z" fill="#364859"/>
    <path fill-rule="evenodd" clip-rule="evenodd" d="M14.0802 6.57413C14.0802 5.68616 13.3598 4.96631 12.471 4.96631H3.6206C1.62098 4.96631 -3.43323e-05 6.58597 -3.43323e-05 8.58391V17.7946C-3.43323e-05 18.9552 0.557329 20.0454 1.49852 20.7257L11.5279 27.9747C12.248 28.4951 13.254 28.3338 13.7748 27.6143C14.2957 26.8948 14.1343 25.8897 13.4142 25.3692L3.38481 18.1203C3.28024 18.0447 3.21831 17.9235 3.21831 17.7946V8.58391C3.21831 8.36192 3.39842 8.18196 3.6206 8.18196H12.471C13.3598 8.18196 14.0802 7.46211 14.0802 6.57413Z" fill="#364859"/>
</svg>
