<svg width="140" height="83" viewBox="0 0 140 83" fill="none" xmlns="http://www.w3.org/2000/svg">
    <path d="M131.604 34.6366C136.241 34.6366 140 38.441 140 43.134V48.6573C140 53.3503 136.241 57.1547 131.604 57.1547H83.2234C86.4978 49.762 86.1969 39.0623 85.6372 34.6366H131.604Z" fill="#364859"/>
    <path d="M131.604 9.99412C136.241 9.99412 140 13.7985 140 18.4915V24.0148C140 28.7078 136.241 32.5123 131.604 32.5123L85.0075 32.5123C83.5802 22.7402 75.8771 13.4285 72.2039 9.99412L131.604 9.99412Z" fill="#364859"/>
    <path d="M131.604 59.2791C136.241 59.2791 140 63.0835 140 67.7765V73.2998C140 77.9928 136.241 81.7972 131.604 81.7972L59.4003 81.7972C71.994 77.4635 79.97 64.9794 82.3838 59.2791H131.604Z" fill="#364859"/>
    <path fill-rule="evenodd" clip-rule="evenodd" d="M40.5097 69.9009C55.9273 69.9009 68.4258 57.2512 68.4258 41.647C68.4258 26.0428 55.9273 13.3931 40.5097 13.3931C25.0921 13.3931 12.5937 26.0428 12.5937 41.647C12.5937 57.2512 25.0921 69.9009 40.5097 69.9009ZM40.5097 82.647C62.8827 82.647 81.0195 64.2906 81.0195 41.647C81.0195 19.0033 62.8827 0.646973 40.5097 0.646973C18.1368 0.646973 0 19.0033 0 41.647C0 64.2906 18.1368 82.647 40.5097 82.647Z" fill="#364859"/>
    <path fill-rule="evenodd" clip-rule="evenodd" d="M40.4048 62.8905C52.0549 62.8905 61.4993 53.3319 61.4993 41.5408C61.4993 29.7496 52.0549 20.191 40.4048 20.191C28.7547 20.191 19.3103 29.7496 19.3103 41.5408C19.3103 53.3319 28.7547 62.8905 40.4048 62.8905ZM40.4048 67.1392C54.3734 67.1392 65.6972 55.6784 65.6972 41.5408C65.6972 27.4031 54.3734 15.9423 40.4048 15.9423C26.4362 15.9423 15.1124 27.4031 15.1124 41.5408C15.1124 55.6784 26.4362 67.1392 40.4048 67.1392Z" fill="#364859"/>
    <path d="M35.0525 36.3361H45.7571V47.1703H35.0525V36.3361Z" fill="#364859"/>
</svg>
