<svg width="40" height="51" viewBox="0 0 40 51" fill="none" xmlns="http://www.w3.org/2000/svg">
    <path d="M14.435 48.4388H40L37.7826 46.3203L14.435 46.0281V48.4388Z" fill="#364859"/>
    <path d="M14.9564 1.57976H13.1658C13.0942 1.57976 13.0229 1.56987 12.9541 1.55039L12.9177 1.54008C12.6755 1.47154 12.4887 1.28024 12.4276 1.03828C12.3929 0.901038 12.4012 0.75661 12.4514 0.624145L12.4764 0.558024C12.556 0.34787 12.7272 0.184526 12.9422 0.113528C13.0188 0.0882299 13.0991 0.0753325 13.1798 0.0753325H17.9941V36.0843H14.9564V1.57976Z" fill="#364859"/>
    <path fill-rule="evenodd" clip-rule="evenodd" d="M12.9181 0.0420643C13.0025 0.0142038 13.0909 0 13.1798 0H18.0702V36.1596H14.8803V1.65509H13.1658C13.0871 1.65509 13.0088 1.64423 12.9332 1.62282L12.8968 1.61252C12.6284 1.53658 12.4214 1.32463 12.3538 1.05655C12.3154 0.904487 12.3246 0.744468 12.3802 0.597704L12.4052 0.531582C12.4928 0.300142 12.6813 0.120254 12.9181 0.0420643ZM13.1798 0.150665C13.1072 0.150665 13.0351 0.162256 12.9663 0.184992C12.773 0.248799 12.6192 0.395598 12.5477 0.584465L12.5226 0.650587C12.4779 0.768753 12.4705 0.89759 12.5014 1.02002C12.5559 1.23586 12.7225 1.40651 12.9386 1.46765L12.975 1.47795C13.0371 1.49551 13.1013 1.50442 13.1658 1.50442H15.0325V36.0089H17.918V0.150665H13.1798Z" fill="#364859"/>
    <path d="M16.9309 35.8053H20.4242V47.2389H16.9309V35.8053Z" fill="#364859"/>
    <path fill-rule="evenodd" clip-rule="evenodd" d="M19.2851 2.25615C19.4952 2.25615 19.6655 2.42479 19.6655 2.63281V36.4071C19.6655 36.6152 19.4952 36.7838 19.2851 36.7838C19.075 36.7838 18.9046 36.6152 18.9046 36.4071V2.63281C18.9046 2.42479 19.075 2.25615 19.2851 2.25615Z" fill="#364859"/>
    <path fill-rule="evenodd" clip-rule="evenodd" d="M11.0669 19.0452C11.3618 18.454 11.97 18.0798 12.6359 18.0798H14.9558V18.5318H12.6359C12.1437 18.5318 11.6942 18.8084 11.4762 19.2453L8.84345 24.5229C8.76815 24.6739 8.72899 24.8399 8.72899 25.0083C8.72899 25.4563 9.00449 25.8593 9.42467 26.0258L9.47229 26.0446C9.61204 26.1 9.76118 26.1285 9.9117 26.1285H15.4115V26.5805H9.9117C9.70308 26.5805 9.49638 26.541 9.30269 26.4643L9.25506 26.4454C8.66159 26.2103 8.27247 25.6411 8.27247 25.0083C8.27247 24.7705 8.32779 24.5359 8.43413 24.3228L11.0669 19.0452Z" fill="#364859"/>
    <path fill-rule="evenodd" clip-rule="evenodd" d="M2.16634 25.8438C2.37642 25.841 2.54895 26.0075 2.5517 26.2155L2.75324 41.4381C2.75599 41.6461 2.58792 41.817 2.37785 41.8197C2.16777 41.8224 1.99524 41.656 1.99248 41.4479L1.79095 26.2253C1.78819 26.0173 1.95626 25.8465 2.16634 25.8438Z" fill="#364859"/>
    <path fill-rule="evenodd" clip-rule="evenodd" d="M4.29979 26.8877C4.30176 27.0125 4.20117 27.1152 4.07512 27.1172L0.231826 27.1766C0.105778 27.1786 0.00199849 27.079 2.8451e-05 26.9542C-0.00194158 26.8294 0.0986439 26.7266 0.224692 26.7247L4.06799 26.6652C4.19404 26.6633 4.29782 26.7629 4.29979 26.8877Z" fill="#364859"/>
    <path d="M31.6305 48.8908H36.4908V50.2436C36.4908 50.6597 36.1502 50.997 35.73 50.997H32.3914C31.9712 50.997 31.6305 50.6597 31.6305 50.2436V48.8908Z" fill="#364859"/>
    <path d="M2.86572 47.0887H4.0808V48.2922H2.86572V47.0887Z" fill="#364859"/>
    <path d="M0.435115 37.5909C0.435115 36.7588 1.11642 36.0843 1.95684 36.0843H17.3263V48.4388H7.55878V47.4828L7.49702 46.8643C7.44138 46.3071 7.23003 45.7763 6.8867 45.3314L6.71295 45.1063C6.35436 44.6416 5.86695 44.2902 5.31016 44.0951L5.18743 44.0521C4.86128 43.9378 4.51784 43.8794 4.17186 43.8794H0.435115V37.5909Z" fill="#364859"/>
    <path fill-rule="evenodd" clip-rule="evenodd" d="M3.47328 49.9453C4.73001 49.9453 5.74954 48.9361 5.74954 47.6903C5.74954 46.4444 4.73001 45.4352 3.47328 45.4352C2.21655 45.4352 1.19702 46.4444 1.19702 47.6903C1.19702 48.9361 2.21655 49.9453 3.47328 49.9453ZM3.47328 51C5.31872 51 6.81475 49.5182 6.81475 47.6903C6.81475 45.8624 5.31872 44.3805 3.47328 44.3805C1.62784 44.3805 0.13181 45.8624 0.13181 47.6903C0.13181 49.5182 1.62784 51 3.47328 51Z" fill="#364859"/>
    <path d="M7.13071 34.2763C7.13071 32.6121 8.49331 31.263 10.1742 31.263H15.1959V35.4816H7.13071V34.2763Z" fill="#364859"/>
</svg>
