<svg width="130" height="130" viewBox="0 0 130 130" fill="none" xmlns="http://www.w3.org/2000/svg">
    <path d="M11.2985 56.53C10.9574 55.6931 11.4312 54.7466 12.3568 54.4158L14.0326 53.817C14.9582 53.4863 15.9849 53.8967 16.326 54.7336L38.6816 109.591C38.818 109.926 38.6285 110.304 38.2582 110.437L34.5714 111.754C34.2012 111.886 33.7904 111.722 33.654 111.387L11.2985 56.53Z" fill="#364859"/>
    <path d="M43.0935 121.168C43.0935 122.184 44.2341 123.007 45.641 123.007H127.592C129.604 123.007 130.725 121.331 129.474 120.196L125.844 116.903C125.388 116.49 124.695 116.249 123.962 116.249H45.641C44.2341 116.249 43.0935 117.072 43.0935 118.088V121.168Z" fill="#364859"/>
    <path d="M123.61 123.696C123.61 126.114 121.524 128.074 118.952 128.074C116.379 128.074 114.293 126.114 114.293 123.696H123.61Z" fill="#364859"/>
    <path d="M58.1535 0H66.7283C68.0438 0 69.1102 0.758274 69.1102 1.69365V116.555H58.1535V6.42042V0Z" fill="#364859"/>
    <path d="M58.1535 0H48.1495C46.834 0 45.7676 0.758274 45.7676 1.69365V4.72677C45.7676 5.66215 46.834 6.42042 48.1495 6.42042H58.1535V0Z" fill="#364859"/>
    <path d="M33.7567 85.7417C33.7567 84.8787 34.1589 84.0816 34.8114 83.6514L53.0214 71.6452C53.3404 71.4349 53.7018 71.3242 54.0697 71.3242H71.1568C72.3182 71.3242 73.2597 72.4037 73.2597 73.7354V120.562C73.2597 121.893 72.3182 122.973 71.1568 122.973H35.8596C34.6982 122.973 33.7567 121.893 33.7567 120.562V85.7417Z" fill="#364859"/>
    <path d="M70.9058 12.5043C70.9058 12.1301 71.2273 11.8267 71.624 11.8267H72.7014C73.098 11.8267 73.4196 12.1301 73.4196 12.5043V116.248H70.9058V12.5043Z" fill="#364859"/>
    <path fill-rule="evenodd" clip-rule="evenodd" d="M18.4897 58.4387C18.2083 57.7482 18.5723 56.9769 19.3026 56.7159L26.576 54.117C28.2193 53.5298 30.0647 54.3132 30.6979 55.8668L33.5351 62.8291C33.9068 63.7411 33.7877 64.7636 33.2157 65.5722L27.2339 74.0281C26.8008 74.6403 25.9212 74.8024 25.2693 74.39C24.6173 73.9776 24.4399 73.147 24.873 72.5348L30.8548 64.0789C30.9183 63.9891 30.9316 63.8754 30.8903 63.7741L28.053 56.8119C27.9827 56.6393 27.7776 56.5522 27.595 56.6175L20.3216 59.2164C19.5913 59.4773 18.7711 59.1292 18.4897 58.4387Z" fill="#364859"/>
    <path fill-rule="evenodd" clip-rule="evenodd" d="M12.0808 60.3709C11.7994 59.6804 10.9792 59.3322 10.2489 59.5932L2.9755 62.1921C1.33219 62.7793 0.513269 64.5147 1.14639 66.0683L4.06511 73.2304C4.43291 74.1329 5.23641 74.817 6.22546 75.0696L16.7648 77.7612C17.5215 77.9545 18.2971 77.5336 18.4972 76.8212C18.6973 76.1088 18.246 75.3746 17.4894 75.1813L6.95002 72.4897C6.84012 72.4616 6.75084 72.3856 6.70998 72.2853L3.79125 65.1232C3.72091 64.9506 3.8119 64.7578 3.99449 64.6925L11.2679 62.0936C11.9982 61.8327 12.3622 61.0614 12.0808 60.3709Z" fill="#364859"/>
    <path fill-rule="evenodd" clip-rule="evenodd" d="M49.8258 19.1937C50.4838 18.1743 51.63 17.5562 52.8622 17.5562H59.7731V21.0697H52.8622L38.0719 43.9844L59.7731 43.9844V47.4979H38.0719C35.2438 47.4979 33.5255 44.448 35.0355 42.1084L49.8258 19.1937Z" fill="#364859"/>
    <path fill-rule="evenodd" clip-rule="evenodd" d="M23.6763 126.155C26.5953 126.155 28.9616 123.895 28.9616 121.107C28.9616 118.32 26.5953 116.06 23.6763 116.06C20.7573 116.06 18.3909 118.32 18.3909 121.107C18.3909 123.895 20.7573 126.155 23.6763 126.155ZM23.6763 130C28.8193 130 32.9886 126.019 32.9886 121.107C32.9886 116.196 28.8193 112.214 23.6763 112.214C18.5333 112.214 14.364 116.196 14.364 121.107C14.364 126.019 18.5333 130 23.6763 130Z" fill="#364859"/>
    <path d="M19.3922 102.048C19.3922 101.38 19.8178 100.838 20.3428 100.838H34.6019C35.1269 100.838 35.5525 101.38 35.5525 102.048V110.52C35.5525 111.188 35.1269 111.73 34.6019 111.73H20.3428C19.8178 111.73 19.3922 111.188 19.3922 110.52V102.048Z" fill="#364859"/>
    <path d="M21.9142 119.425H25.4377V122.79H21.9142V119.425Z" fill="#364859"/>
</svg>
