<svg width="63" height="63" viewBox="0 0 63 63" fill="none" xmlns="http://www.w3.org/2000/svg">
<path d="M46.8197 23.8806C46.8197 15.3997 39.9199 8.49976 31.4389 8.49976C22.9578 8.49976 16.058 15.3995 16.058 23.8806C16.058 26.8118 16.8864 29.6629 18.4534 32.1261C18.7258 32.554 19.2935 32.6804 19.7218 32.4081C20.15 32.1357 20.2762 31.5679 20.0039 31.1397C18.6247 28.972 17.8957 26.4618 17.8957 23.8807C17.8957 16.4129 23.9711 10.3374 31.439 10.3374C38.9068 10.3374 44.9823 16.4129 44.9823 23.8807C44.9823 31.3485 38.9068 37.4239 31.439 37.4239C28.0877 37.4239 24.8711 36.1899 22.3818 33.9491C22.0048 33.6096 21.4238 33.6401 21.0842 34.0173C20.7448 34.3944 20.7753 34.9753 21.1525 35.3149C23.9797 37.8599 27.6329 39.2616 31.439 39.2616C39.9199 39.2612 46.8197 32.3616 46.8197 23.8806Z" fill="#364859"/>
<path d="M39.178 15.1057C37.0375 13.2157 34.289 12.1748 31.439 12.1748C24.9845 12.1748 19.7334 17.4259 19.7334 23.8806C19.7334 30.335 24.9845 35.5862 31.439 35.5862C37.8935 35.5862 43.1446 30.335 43.1446 23.8806C43.1446 22.0017 42.6858 20.1314 41.818 18.4722C41.5829 18.0224 41.0277 17.8485 40.578 18.0839C40.1284 18.319 39.9546 18.8742 40.1897 19.3238C40.9311 20.7414 41.307 22.2745 41.307 23.8806C41.307 29.3218 36.8802 33.7486 31.439 33.7486C25.9977 33.7486 21.5709 29.3218 21.5709 23.8806C21.5709 18.4393 25.9977 14.0124 31.439 14.0124C33.8408 14.0124 36.1573 14.8899 37.9619 16.4831C38.3424 16.8193 38.923 16.7829 39.2588 16.4025C39.5944 16.0222 39.5584 15.4415 39.178 15.1057Z" fill="#364859"/>
<path d="M35.5241 23.8807C35.5241 21.6279 33.6915 19.7952 31.4387 19.7952C29.186 19.7952 27.3533 21.6279 27.3533 23.8807C27.3533 26.1334 29.186 27.9661 31.4387 27.9661C33.6915 27.9661 35.5241 26.1333 35.5241 23.8807ZM31.4387 26.1284C30.1992 26.1284 29.1909 25.12 29.1909 23.8806C29.1909 22.6411 30.1992 21.6326 31.4387 21.6326C32.6782 21.6326 33.6866 22.6409 33.6866 23.8806C33.6866 25.12 32.6782 26.1284 31.4387 26.1284Z" fill="#364859"/>
<path d="M32.3576 17.2603V16.7103C32.3576 16.2028 31.9462 15.7915 31.4388 15.7915C30.9314 15.7915 30.52 16.2028 30.52 16.7103V17.2603C30.52 17.7679 30.9314 18.1791 31.4388 18.1791C31.9462 18.1791 32.3576 17.7679 32.3576 17.2603Z" fill="#364859"/>
<path d="M36.7693 19.8489L37.1581 19.46C37.5169 19.1012 37.5171 18.5195 37.1583 18.1608C36.7994 17.8018 36.2177 17.802 35.859 18.1607L35.4702 18.5495C35.1113 18.9083 35.1112 19.4901 35.47 19.8488C35.6494 20.0282 35.8846 20.1179 36.1198 20.1179C36.355 20.1179 36.59 20.0282 36.7693 19.8489Z" fill="#364859"/>
<path d="M38.6088 24.7995C39.1162 24.7995 39.5276 24.3882 39.5276 23.8807C39.5276 23.3732 39.1162 22.9619 38.6088 22.9619H38.0588C37.5513 22.9619 37.14 23.3732 37.14 23.8807C37.14 24.3882 37.5513 24.7995 38.0588 24.7995H38.6088Z" fill="#364859"/>
<path d="M35.8589 29.6001C36.0382 29.7796 36.2734 29.8692 36.5087 29.8692C36.7437 29.8692 36.9788 29.7796 37.1583 29.6002C37.5171 29.2414 37.5172 28.6596 37.1584 28.3009L36.7696 27.912C36.4108 27.5532 35.829 27.5531 35.4703 27.9119C35.1115 28.2707 35.1114 28.8525 35.4702 29.2111L35.8589 29.6001Z" fill="#364859"/>
<path d="M30.52 30.5006V31.0505C30.52 31.558 30.9314 31.9693 31.4388 31.9693C31.9462 31.9693 32.3576 31.558 32.3576 31.0505V30.5006C32.3576 29.993 31.9462 29.5818 31.4388 29.5818C30.9314 29.5818 30.52 29.993 30.52 30.5006Z" fill="#364859"/>
<path d="M26.3688 29.8692C26.6039 29.8692 26.8391 29.7796 27.0186 29.6001L27.4074 29.2111C27.7662 28.8523 27.7661 28.2706 27.4073 27.9119C27.0485 27.5532 26.4667 27.5531 26.108 27.912L25.7192 28.3009C25.3604 28.6598 25.3605 29.2415 25.7193 29.6002C25.8985 29.7796 26.1336 29.8692 26.3688 29.8692Z" fill="#364859"/>
<path d="M24.2684 22.9619C23.761 22.9619 23.3496 23.3732 23.3496 23.8807C23.3496 24.3882 23.761 24.7995 24.2684 24.7995H24.8184C25.3259 24.7995 25.7372 24.3882 25.7372 23.8807C25.7372 23.3732 25.3259 22.9619 24.8184 22.9619H24.2684Z" fill="#364859"/>
<path d="M26.108 19.8489C26.2874 20.0282 26.5224 20.1179 26.7576 20.1179C26.9929 20.1179 27.2279 20.0282 27.4074 19.8488C27.7662 19.4899 27.7661 18.9082 27.4073 18.5495L27.0185 18.1607C26.6596 17.802 26.0779 17.8018 25.7192 18.1608C25.3604 18.5196 25.3605 19.1014 25.7193 19.46L26.108 19.8489Z" fill="#364859"/>
<path d="M57.8552 41.2486H47.822C49.826 39.3544 51.5077 37.115 52.75 34.6653C54.4549 31.3038 55.3193 27.6752 55.3193 23.8806C55.3192 10.7127 44.6066 0 31.4388 0C18.2709 0 7.55833 10.7127 7.55833 23.8806C7.55833 27.6754 8.42272 31.3038 10.1276 34.6653C11.3699 37.115 13.0517 39.3544 15.0557 41.2486H5.14488C2.41402 41.2486 0.192413 43.4703 0.192413 46.201V58.0474C0.192413 60.7783 2.41415 63 5.14488 63H57.8552C60.586 63 62.8076 60.7783 62.8076 58.0474V46.201C62.8077 43.4703 60.586 41.2486 57.8552 41.2486ZM11.7665 33.8341C10.1935 30.7327 9.39589 27.3838 9.39589 23.8806C9.39589 11.726 19.2843 1.83756 31.4388 1.83756C43.5932 1.83756 53.4816 11.726 53.4816 23.8806C53.4816 27.3838 52.684 30.7327 51.1111 33.8341C49.6562 36.7028 47.5488 39.2595 45.0078 41.2486H17.8697C15.3286 39.2595 13.2213 36.7027 11.7665 33.8341ZM5.14488 43.0861H57.8552C59.2775 43.0861 60.4794 44.0448 60.8509 45.3498H2.14917C2.5206 44.0448 3.72249 43.0861 5.14488 43.0861ZM57.8552 61.1624H5.14488C3.72249 61.1624 2.5206 60.2037 2.14917 58.8987H49.2986C49.806 58.8987 50.2174 58.4874 50.2174 57.9799C50.2174 57.4724 49.806 57.0611 49.2986 57.0611H2.02997V47.1872H60.9702V57.0611H53.2142C52.7068 57.0611 52.2954 57.4724 52.2954 57.9799C52.2954 58.4874 52.7068 58.8987 53.2142 58.8987H60.851C60.4796 60.2036 59.2777 61.1624 57.8552 61.1624Z" fill="#364859"/>
</svg>
