<svg width="130" height="130" viewBox="0 0 130 130" fill="none" xmlns="http://www.w3.org/2000/svg">
    <path fill-rule="evenodd" clip-rule="evenodd" d="M71.7613 55.2821L19.2768 7.4288L21.9016 4.47949L74.3861 52.3328C76.567 54.3213 76.2571 57.8708 73.7655 59.4414L18.1943 94.4709L16.1211 91.1015L71.6923 56.0719C71.9692 55.8974 72.0036 55.503 71.7613 55.2821Z" fill="#364859"/>
    <path fill-rule="evenodd" clip-rule="evenodd" d="M29.2238 55.2821L81.7083 7.4288L79.0835 4.47949L26.599 52.3328C24.4181 54.3213 24.728 57.8708 27.2196 59.4414L82.7908 94.4709L84.864 91.1015L29.2928 56.0719C29.0159 55.8974 28.9815 55.503 29.2238 55.2821Z" fill="#364859"/>
    <path d="M0 2.48092C0 1.11074 1.09739 0 2.45109 0H102.456C103.809 0 104.907 1.11074 104.907 2.48092V6.45038C104.907 7.82055 103.809 8.9313 102.456 8.9313H2.45109C1.09739 8.9313 0 7.82055 0 6.45038V2.48092Z" fill="#364859"/>
    <path fill-rule="evenodd" clip-rule="evenodd" d="M105.161 38.3363C105.568 36.2426 107.381 34.7329 109.49 34.7329H125.587C128.287 34.7329 130.353 37.1651 129.949 39.8669L121.991 93.0834L118.113 92.4893L126.072 39.2728C126.117 38.9726 125.887 38.7024 125.587 38.7024H109.49C109.255 38.7024 109.054 38.8701 109.009 39.1028L98.497 93.1696L94.649 92.4031L105.161 38.3363Z" fill="#364859"/>
    <path d="M0 90.3051C0 88.935 1.09739 87.8242 2.45109 87.8242H125.986C127.34 87.8242 128.437 88.935 128.437 90.3051V102.71C128.437 104.08 127.34 105.191 125.986 105.191H2.45109C1.09739 105.191 0 104.08 0 102.71V90.3051Z" fill="#364859"/>
    <path fill-rule="evenodd" clip-rule="evenodd" d="M14.4615 125.038C17.3043 125.038 19.6088 122.706 19.6088 119.828C19.6088 116.951 17.3043 114.618 14.4615 114.618C11.6187 114.618 9.3142 116.951 9.3142 119.828C9.3142 122.706 11.6187 125.038 14.4615 125.038ZM14.4615 129.008C19.4702 129.008 23.5305 124.898 23.5305 119.828C23.5305 114.759 19.4702 110.649 14.4615 110.649C9.4528 110.649 5.39246 114.759 5.39246 119.828C5.39246 124.898 9.4528 129.008 14.4615 129.008Z" fill="#364859"/>
    <path d="M10.2947 106.183C10.2947 105.909 10.5142 105.687 10.7849 105.687H18.1382C18.4089 105.687 18.6284 105.909 18.6284 106.183V109.656C18.6284 109.931 18.4089 110.153 18.1382 110.153H10.7849C10.5142 110.153 10.2947 109.931 10.2947 109.656V106.183Z" fill="#364859"/>
    <path d="M12.7457 118.092H16.1773V121.565H12.7457V118.092Z" fill="#364859"/>
    <path fill-rule="evenodd" clip-rule="evenodd" d="M112.26 126.03C116.592 126.03 120.103 122.476 120.103 118.092C120.103 113.707 116.592 110.153 112.26 110.153C107.928 110.153 104.416 113.707 104.416 118.092C104.416 122.476 107.928 126.03 112.26 126.03ZM112.26 130C118.758 130 124.025 124.668 124.025 118.092C124.025 111.515 118.758 106.183 112.26 106.183C105.762 106.183 100.495 111.515 100.495 118.092C100.495 124.668 105.762 130 112.26 130Z" fill="#364859"/>
    <path d="M110.789 116.107H114.221V119.58H110.789V116.107Z" fill="#364859"/>
</svg>
