<svg width="130" height="130" viewBox="0 0 130 130" fill="none" xmlns="http://www.w3.org/2000/svg">
    <path d="M8.88923 50.0178C8.72392 49.1898 9.15315 48.4067 9.84796 48.2687L11.106 48.0189C11.8008 47.8809 12.4981 48.4403 12.6634 49.2683L23.4991 103.542C23.5652 103.874 23.3935 104.187 23.1156 104.242L20.3479 104.792C20.07 104.847 19.7911 104.623 19.7249 104.292L8.88923 50.0178Z" fill="#364859"/>
    <path fill-rule="evenodd" clip-rule="evenodd" d="M13.6487 51.9734C13.5397 51.4274 13.8958 50.8966 14.4441 50.7877L19.9042 49.7033C21.1378 49.4583 22.3367 50.2555 22.582 51.4839L23.681 56.9889C23.825 57.71 23.6089 58.4561 23.1014 58.9905L17.7943 64.5784C17.4101 64.983 16.7694 65.0009 16.3634 64.6185C15.9574 64.2361 15.9398 63.5981 16.324 63.1935L21.6311 57.6056C21.6875 57.5462 21.7115 57.4633 21.6955 57.3832L20.5965 51.8782C20.5692 51.7418 20.436 51.6532 20.2989 51.6804L14.8388 52.7648C14.2906 52.8737 13.7577 52.5194 13.6487 51.9734Z" fill="#364859"/>
    <path fill-rule="evenodd" clip-rule="evenodd" d="M8.88387 52.6624C8.77487 52.1164 8.24205 51.7621 7.69377 51.871L2.23367 52.9554C1.00004 53.2004 0.198805 54.3948 0.444055 55.6232L1.57467 61.2863C1.71714 61.9999 2.19482 62.6019 2.85897 62.9048L9.9362 66.1329C10.4443 66.3647 11.0451 66.1422 11.2782 65.636C11.5112 65.1299 11.2882 64.5317 10.7801 64.2999L3.70286 61.0718C3.62907 61.0381 3.57599 60.9712 3.56016 60.892L2.42955 55.2289C2.4023 55.0924 2.49132 54.9597 2.62839 54.9325L8.08849 53.8481C8.63677 53.7392 8.99287 53.2084 8.88387 52.6624Z" fill="#364859"/>
    <path d="M47.2105 122.684C47.2105 123.709 48.297 124.541 49.6374 124.541H127.706C129.623 124.541 130.691 122.849 129.498 121.702L126.041 118.378C125.606 117.96 124.946 117.717 124.248 117.717H49.6374C48.297 117.717 47.2105 118.548 47.2105 119.574V122.684Z" fill="#364859"/>
    <path d="M123.913 125.237C123.913 127.678 121.926 129.657 119.475 129.657C117.024 129.657 115.037 127.678 115.037 125.237H123.913Z" fill="#364859"/>
    <path d="M15.0526 99.6373C15.0526 98.6926 15.8184 97.9268 16.7631 97.9268H20.8684V125.223H16.7631C15.8184 125.223 15.0526 124.458 15.0526 123.513V99.6373Z" fill="#364859"/>
    <path d="M20 85.3614C20 77.4298 27.1634 71 36 71H50.0952C51.1472 71 52 71.7655 52 72.7097V128.29C52 129.235 51.1472 130 50.0952 130H21.9048C20.8528 130 20 129.235 20 128.29V85.3614Z" fill="#364859"/>
    <path d="M49.6052 0H55.7631C56.7078 0 57.4737 0.765829 57.4737 1.71053V117.717H49.6052V6.48439V0Z" fill="#364859"/>
    <path d="M49.6052 0H42.421C41.4763 0 40.7105 0.765829 40.7105 1.71053V4.77386C40.7105 5.71856 41.4763 6.48439 42.421 6.48439H49.6052V0Z" fill="#364859"/>
    <path d="M59.1842 12.9674C59.1842 12.5895 59.4905 12.2832 59.8684 12.2832H60.8947C61.2726 12.2832 61.5789 12.5895 61.5789 12.9674V117.716H59.1842V12.9674Z" fill="#364859"/>
</svg>
