<svg width="70" height="83" viewBox="0 0 70 83" fill="none" xmlns="http://www.w3.org/2000/svg">
<path d="M69.2672 67.3929H63.5987V30.9261C63.5987 30.5284 63.2668 30.1993 62.8659 30.1993H47.8926H40.717H26.4764V4.80007C26.4764 3.36005 25.315 2.19432 23.8771 2.19432H18.8307V1.87888C18.8169 0.836583 17.9735 0 16.9366 0C15.9135 0 15.0701 0.822868 15.0563 1.85145H3.78827C3.77444 0.822868 2.94489 0 1.90796 0C0.857199 0 0 0.836583 0 1.87888V8.79098C0 9.83328 0.857199 10.6699 1.90796 10.6699C2.93107 10.6699 3.77444 9.84699 3.78827 8.81841H15.0563C15.0701 9.84699 15.9135 10.6699 16.9366 10.6699C17.9735 10.6699 18.8169 9.83328 18.8169 8.79098V8.47554H19.7294V58.3962C14.3097 59.754 10.2726 64.6775 10.2726 70.5198C10.2726 77.4045 15.8858 83 22.7711 83C28.3982 83 33.1543 79.256 34.7027 74.1267H69.2672C69.6682 74.1267 70 73.7976 70 73.3999V68.1061C70 67.7221 69.6682 67.3929 69.2672 67.3929ZM47.1598 31.6393V49.7013H45.0168V31.6393H47.1598ZM43.5513 31.6393V49.7013H41.4359V31.6393H43.5513ZM39.9842 31.6393V50.4281C39.9842 50.8258 40.316 51.155 40.717 51.155H47.8926C48.2935 51.155 48.6253 50.8258 48.6253 50.4281V31.6393H62.1331V67.3929H34.8548C34.8134 67.2421 34.758 67.0912 34.7027 66.9404C34.6613 66.8032 34.6198 66.6661 34.5645 66.5289C34.2465 65.5689 33.8041 64.6637 33.2787 63.8134C33.1957 63.6763 33.099 63.5254 33.0022 63.3883C32.8501 63.1689 32.6842 62.9632 32.5183 62.7437C32.38 62.5791 32.2418 62.4009 32.1035 62.25C31.9514 62.0717 31.7993 61.8934 31.6334 61.7289C31.3293 61.4134 31.0113 61.1117 30.6794 60.8374C30.5965 60.7688 30.5135 60.714 30.4306 60.6591C30.1264 60.4123 29.8084 60.1928 29.4766 59.9734C29.3798 59.9048 29.2692 59.85 29.1724 59.7814C28.7991 59.562 28.4258 59.3562 28.0387 59.178C27.9972 59.1642 27.9558 59.1368 27.9143 59.1231C27.4442 58.9037 26.9603 58.7117 26.4626 58.5471V31.6393H39.9842ZM2.33656 8.79098C2.33656 9.02412 2.143 9.22984 1.90796 9.22984C1.6591 9.22984 1.45171 9.03784 1.45171 8.79098V1.87888C1.45171 1.63202 1.64527 1.44002 1.90796 1.44002C2.143 1.44002 2.33656 1.63202 2.33656 1.87888V2.57832V8.09154V8.79098ZM3.78827 3.29147H15.0563V7.36467H3.78827V3.29147ZM17.3652 8.79098C17.3652 9.02412 17.1716 9.22984 16.9366 9.22984C16.7016 9.22984 16.508 9.03784 16.508 8.79098V8.09154V2.57832V1.87888C16.508 1.64574 16.7016 1.44002 16.9366 1.44002C17.1716 1.44002 17.3652 1.63202 17.3652 1.87888V2.92118V7.74868V8.79098ZM21.1949 58.1082V7.74868C21.1949 7.35096 20.8631 7.02181 20.4622 7.02181H18.8307V3.64805H23.8771C24.5131 3.64805 25.0247 4.1692 25.0247 4.80007V30.9261V58.2179C24.6652 58.1494 24.3057 58.0945 23.9325 58.0671C23.5453 58.0259 23.1582 58.0122 22.7849 58.0122C22.2734 58.0122 21.7756 58.0534 21.2779 58.1082C21.2364 58.1082 21.2088 58.1082 21.1949 58.1082ZM22.7711 81.56C16.6877 81.56 11.7243 76.6091 11.7243 70.5198C11.7243 65.1575 15.5402 60.6866 20.5866 59.6717C21.0014 59.5894 21.4023 59.5345 21.8033 59.5071C21.9001 59.4934 22.0107 59.4934 22.1074 59.4934C22.3978 59.4797 22.6743 59.466 22.9646 59.466C23.1029 59.466 23.2412 59.4797 23.3794 59.4934C23.6698 59.5071 23.9463 59.5345 24.2228 59.5757C24.2919 59.5894 24.3472 59.5894 24.4164 59.6031C24.7897 59.658 25.1491 59.7402 25.5224 59.8363C26.4902 60.0831 27.4027 60.4671 28.2461 60.9608C28.3291 61.0157 28.412 61.0568 28.495 61.1117C28.813 61.3037 29.1033 61.5094 29.3936 61.7289C29.4904 61.7974 29.5872 61.866 29.684 61.9483C30.002 62.2089 30.2923 62.4831 30.5827 62.7712C30.7209 62.922 30.8592 63.0729 30.9974 63.2237C31.1357 63.3883 31.2739 63.5529 31.4122 63.7312C31.5505 63.9232 31.7025 64.1015 31.8408 64.3072C31.9376 64.4443 32.0067 64.5815 32.1035 64.7186C32.3524 65.1163 32.5736 65.5278 32.7671 65.9529C32.8224 66.09 32.8916 66.2272 32.9469 66.3643C33.0437 66.6249 33.1404 66.8718 33.2372 67.1461C33.2787 67.2969 33.3202 67.4478 33.3616 67.5986C33.5137 68.1609 33.6382 68.7369 33.6935 69.3267C33.6935 69.3541 33.7073 69.3815 33.7073 69.409C33.7488 69.7792 33.7626 70.1495 33.7626 70.5335C33.7626 70.945 33.7349 71.3564 33.6935 71.7541C33.6658 71.9736 33.6243 72.193 33.5967 72.4124C33.569 72.577 33.5414 72.7416 33.5137 72.8924C32.4353 77.8296 28.0249 81.56 22.7711 81.56ZM68.5345 72.6867H35.0622C35.1037 72.4261 35.1313 72.1656 35.159 71.905C35.159 71.8501 35.1728 71.7953 35.1728 71.7541C35.2143 71.3427 35.242 70.9313 35.242 70.5198C35.242 70.0124 35.2005 69.5187 35.1452 69.0249C35.1313 68.9564 35.1452 68.9015 35.1313 68.8467H62.8659H68.5483V72.6867H68.5345Z" fill="#364859"/>
</svg>
