<svg width="62" height="62" viewBox="0 0 62 62" fill="none" xmlns="http://www.w3.org/2000/svg">
<path fill-rule="evenodd" clip-rule="evenodd" d="M7.75 33.9063H13.5625C13.9035 33.9063 14.2271 33.976 14.5312 34.0845V24.9172L12.2876 24.1693C11.8914 24.0366 11.625 23.6675 11.625 23.25V20.3438C11.625 19.9262 11.8914 19.5571 12.2876 19.4244L14.6368 18.6417C14.9643 17.3949 16.09 16.4688 17.4375 16.4688H28.8532C30.566 16.4688 32.054 17.5683 32.5568 19.2045L39.4659 41.6563H39.7188H41.6562H43.5938V43.5938H40.6875H38.75H21.3125C17.5741 43.5938 14.5312 40.5519 14.5312 36.8125C14.5312 36.2787 14.0972 35.8438 13.5625 35.8438H7.75C5.07915 35.8438 2.90625 38.0167 2.90625 40.6875V52.3125C2.90625 52.8463 3.34025 53.2812 3.875 53.2812H5.18281C5.983 51.027 8.13072 49.4062 10.6562 49.4062C13.1818 49.4062 15.3295 51.027 16.1297 53.2812H26.1562C26.1562 49.0081 29.6331 45.5312 33.9062 45.5312C38.1794 45.5312 41.6562 49.0081 41.6562 53.2812H42.625C43.1597 53.2812 43.5938 52.8463 43.5938 52.3125V43.5938V41.6563V15.2615V13.3538H44.8308C45.3665 13.3538 45.5312 13.9816 45.5312 14.5163V42.625V45.5312H47.4688V18.4063C47.4688 17.8715 47.9018 17.4375 48.4375 17.4375H49.4062V19.375V53.2812C49.4062 53.815 49.8403 54.25 50.375 54.25H59.0938H61.0312V55.2188C61.0312 55.7535 60.5982 56.1875 60.0625 56.1875H50.375C48.7727 56.1875 47.4688 54.8836 47.4688 53.2812V51.3438H45.5312V52.3125C45.5312 53.9148 44.2273 55.2188 42.625 55.2188H41.4015C40.5373 58.5561 37.51 61.0312 33.9062 61.0312C30.3025 61.0312 27.2752 58.5561 26.411 55.2188H16.4688C16.4688 58.4243 13.8618 61.0312 10.6562 61.0312C7.45066 61.0312 4.84375 58.4243 4.84375 55.2188H3.875C2.27269 55.2188 0.96875 53.9148 0.96875 52.3125V40.6875C0.96875 36.9481 4.01159 33.9063 7.75 33.9063ZM16.4688 35.8438V26.1563V24.2188V19.375C16.4688 18.8412 16.9027 18.4063 17.4375 18.4063H28.8532C29.7096 18.4063 30.4546 18.9555 30.7045 19.7732L34.2318 31.2335L34.905 33.4219L37.4383 41.6563H30.0312H28.0938H25.1875H23.25H21.3125C18.973 41.6563 17.0171 39.989 16.5666 37.7813L16.4688 35.8438ZM14.5312 22.8741L13.5625 22.5515V21.0413L14.5312 20.7187V22.8741ZM47.4688 47.4688V49.4062H45.5312V47.4688H47.4688ZM39.7188 53.2812C39.7188 56.4868 37.1118 59.0938 33.9062 59.0938C30.7007 59.0938 28.0938 56.4868 28.0938 53.2812C28.0938 50.0757 30.7007 47.4688 33.9062 47.4688C37.1118 47.4688 39.7188 50.0757 39.7188 53.2812ZM14.5312 55.2188C14.5312 57.3558 12.7933 59.0938 10.6562 59.0938C8.51919 59.0938 6.78125 57.3558 6.78125 55.2188C6.78125 53.0817 8.51919 51.3438 10.6562 51.3438C12.7933 51.3438 14.5312 53.0817 14.5312 55.2188Z" fill="white"/>
<path d="M34.8452 52.2706H32.9077V54.2081H34.8452V52.2706Z" fill="white"/>
<path d="M11.7622 54.3692H9.82471V56.3067H11.7622V54.3692Z" fill="white"/>
</svg>
