<svg width="49" height="42" viewBox="0 0 49 42" fill="none" xmlns="http://www.w3.org/2000/svg">
    <path fill-rule="evenodd" clip-rule="evenodd" d="M5.79688 17.9351H10.7656C11.0571 17.9351 11.3337 17.9959 11.5938 18.0906V10.0908L9.67581 9.43815C9.33711 9.32233 9.10938 9.00024 9.10938 8.63588V6.09974C9.10938 5.73538 9.33711 5.4133 9.67581 5.29748L11.684 4.61441C11.9639 3.52641 12.9262 2.71822 14.0781 2.71822H23.8368C25.3009 2.71822 26.5729 3.67773 27.0027 5.10558L32.9089 24.6981H33.125H34.7812H36.4375V26.3889H33.9531H32.2969H17.3906C14.1949 26.3889 11.5938 23.7344 11.5938 20.4712C11.5938 20.0054 11.2228 19.6258 10.7656 19.6258H5.79688C3.51373 19.6258 1.65625 21.522 1.65625 23.8527V33.9973C1.65625 34.4631 2.02725 34.8427 2.48438 34.8427H3.60234C4.28638 32.8755 6.12233 31.4612 8.28125 31.4612C10.4402 31.4612 12.2761 32.8755 12.9602 34.8427H21.5312C21.5312 31.1137 24.5034 28.0796 28.1562 28.0796C31.8091 28.0796 34.7812 31.1137 34.7812 34.8427H35.6094C36.0665 34.8427 36.4375 34.4631 36.4375 33.9973V26.3889V24.6981V1.66475V0H37.495C37.9529 0 38.0938 0.547806 38.0938 1.01446V25.5435V28.0796H39.75V4.40898C39.75 3.94233 40.1202 3.5636 40.5781 3.5636H41.4062V5.25436V34.8427C41.4062 35.3085 41.7772 35.6881 42.2344 35.6881H46.1719H48.1719V36.5334C48.1719 37.0001 46.6298 37.3788 46.1719 37.3788H42.2344C40.8647 37.3788 39.75 36.2409 39.75 34.8427V33.1519H38.0938V33.9973C38.0938 35.3955 36.9791 36.5334 35.6094 36.5334H34.5635C33.8248 39.4458 31.2369 41.6057 28.1562 41.6057C25.0756 41.6057 22.4877 39.4458 21.749 36.5334H13.25C13.25 39.3308 11.0215 41.6057 8.28125 41.6057C5.54099 41.6057 3.3125 39.3308 3.3125 36.5334H2.48438C1.11465 36.5334 0 35.3955 0 33.9973V23.8527C0 20.5896 2.60114 17.9351 5.79688 17.9351ZM13.25 19.6258V11.172V9.48127V5.25436C13.25 4.78856 13.621 4.40898 14.0781 4.40898H23.8368C24.5688 4.40898 25.2056 4.88831 25.4193 5.60181L28.4345 15.6027L29.01 17.5124L31.1756 24.6981H24.8438H23.1875H20.7031H19.0469H17.3906C15.3907 24.6981 13.7187 23.2432 13.3336 21.3166L13.25 19.6258ZM11.5938 8.30788L10.7656 8.02637V6.70842L11.5938 6.4269V8.30788ZM39.75 29.7704V31.4612H38.0938V29.7704H39.75ZM33.125 34.8427C33.125 37.64 30.8965 39.915 28.1562 39.915C25.416 39.915 23.1875 37.64 23.1875 34.8427C23.1875 32.0453 25.416 29.7704 28.1562 29.7704C30.8965 29.7704 33.125 32.0453 33.125 34.8427ZM11.5938 36.5334C11.5938 38.3983 10.1081 39.915 8.28125 39.915C6.45441 39.915 4.96875 38.3983 4.96875 36.5334C4.96875 34.6685 6.45441 33.1519 8.28125 33.1519C10.1081 33.1519 11.5938 34.6685 11.5938 36.5334Z" fill="white"/>
    <path d="M28.9589 33.9608H27.3026V35.6516H28.9589V33.9608Z" fill="white"/>
    <path d="M9.22656 35.7921H7.57031V37.4828H9.22656V35.7921Z" fill="white"/>
</svg>
