<svg width="50" height="50" viewBox="0 0 50 50" fill="none" xmlns="http://www.w3.org/2000/svg">
<g clip-path="url(#clip0)">
<path d="M34.418 20.6676C34.418 20.04 33.5436 19.5312 32.4648 19.5312H12.3477C11.2689 19.5312 10.3945 20.04 10.3945 20.6676C10.3945 21.2952 11.2689 21.804 12.3477 21.804H32.4648C33.5436 21.804 34.418 21.2952 34.418 20.6676Z" fill="white"/>
<path d="M12.3477 27.3438C11.2689 27.3438 10.3945 27.8525 10.3945 28.4801C10.3945 29.1077 11.2689 29.6165 12.3477 29.6165H24.5655C25.6442 29.6165 26.5187 29.1077 26.5187 28.4801C26.5187 27.8525 25.6442 27.3438 24.5655 27.3438H12.3477Z" fill="white"/>
<path d="M16.9384 46.0938H10.4063C8.25234 46.0938 6.5 44.3414 6.5 42.1875V7.8125C6.5 5.65859 8.25234 3.90625 10.4063 3.90625H34.4189C36.5728 3.90625 38.3251 5.65859 38.3251 7.8125V19.8242C38.3251 20.9029 39.1995 21.7773 40.2782 21.7773C41.3569 21.7773 42.2314 20.9029 42.2314 19.8242V7.8125C42.2314 3.50469 38.7267 0 34.4189 0H10.4063C6.09844 0 2.59375 3.50469 2.59375 7.8125V42.1875C2.59375 46.4953 6.09844 50 10.4063 50H16.9384C18.0171 50 18.8915 49.1256 18.8915 48.0469C18.8915 46.9682 18.0171 46.0938 16.9384 46.0938Z" fill="white"/>
<path d="M45.6911 28.279C43.4065 25.9945 39.6893 25.9944 37.4062 28.2775L26.6833 38.9767C26.4556 39.2039 26.2876 39.4838 26.194 39.7916L23.8588 47.4796C23.6518 48.1613 23.8321 48.9014 24.3296 49.4113C24.7022 49.7932 25.2085 50.0005 25.7277 50.0005C25.9015 50.0005 26.0769 49.9773 26.249 49.9295L34.1323 47.7458C34.4567 47.656 34.7524 47.4838 34.9907 47.2459L45.6912 36.5656C47.9758 34.281 47.9758 30.5638 45.6911 28.279ZM32.5946 44.1185L28.6286 45.2171L29.7893 41.3959L37.0245 34.1767L39.7872 36.9394L32.5946 44.1185ZM42.9305 33.8023L42.552 34.1799L39.7898 31.4177L40.167 31.0413C40.9285 30.2798 42.1676 30.2798 42.9291 31.0413C43.6906 31.8029 43.6906 33.0419 42.9305 33.8023Z" fill="white"/>
<path d="M32.4648 11.7188H12.3477C11.2689 11.7188 10.3945 12.2275 10.3945 12.8551C10.3945 13.4827 11.2689 13.9915 12.3477 13.9915H32.4648C33.5436 13.9915 34.418 13.4827 34.418 12.8551C34.418 12.2275 33.5436 11.7188 32.4648 11.7188Z" fill="white"/>
</g>
<defs>
<clipPath id="clip0">
<rect width="50" height="50" fill="white"/>
</clipPath>
</defs>
</svg>
