<svg width="50" height="50" viewBox="0 0 50 50" fill="none" xmlns="http://www.w3.org/2000/svg">
<g clip-path="url(#clip0)">
<path d="M25.6038 49.9985C36.106 46.3584 41.2839 40.2202 43.801 33.4122C46.3143 26.6148 46.1719 19.1567 46.052 12.8798L46.0519 12.8727L46.0511 12.8299C46.0257 11.4956 46.0017 10.2352 46.0017 9.01566C46.0017 7.9939 45.1736 7.16553 44.1516 7.16553C36.6893 7.16553 31.0168 5.02226 26.2879 0.424349C25.5695 -0.274257 24.4264 -0.274006 23.7083 0.424348C18.9798 5.02226 13.3083 7.16553 5.84643 7.16553C4.82467 7.16553 3.9963 7.9939 3.9963 9.01566C3.9963 10.2485 3.97206 11.5232 3.94615 12.8736L3.94615 12.8736L3.946 12.8816C3.82615 19.1581 3.68374 26.6158 6.19656 33.4127C8.7134 40.2205 13.8908 46.3585 24.3921 49.9985C24.5884 50.0666 24.7932 50.1006 24.998 50.1006C25.2027 50.1006 25.4077 50.0666 25.6038 49.9985ZM25.6038 49.9985L25.5711 49.904M25.6038 49.9985C25.6038 49.9985 25.6039 49.9985 25.6039 49.9985L25.5711 49.904M25.5711 49.904C25.3856 49.9684 25.1917 50.0006 24.998 50.0006C24.8043 50.0006 24.6106 49.9684 24.4249 49.904L23.778 0.496037C24.4573 -0.164578 25.5386 -0.164811 26.2182 0.496037C30.9682 5.11451 36.6669 7.26553 44.1516 7.26553C45.1184 7.26553 45.9017 8.04912 45.9017 9.01566C45.9017 10.2364 45.9257 11.4978 45.9511 12.8319L45.9519 12.8746C46.1918 25.4375 46.5199 42.6431 25.5711 49.904ZM24.9982 46.2869C16.0652 43.0327 11.6732 37.8539 9.53891 31.9224C7.39867 25.9744 7.5253 19.2624 7.6459 12.9442C7.65974 12.2194 7.67315 11.5156 7.68288 10.8254C14.637 10.5151 20.2169 8.40199 24.9982 4.26175C29.78 8.402 35.3608 10.5153 42.3154 10.8254C42.3251 11.5154 42.3385 12.2187 42.3524 12.943C42.4729 19.2615 42.5994 25.9737 40.4589 31.9219C38.3243 37.8536 33.9319 43.0326 24.9982 46.2869Z" fill="white" stroke="white" stroke-width="0.2"/>
<path d="M31.0235 18.9212L22.5765 27.3678L18.9719 23.7632C18.2884 23.08 17.1802 23.08 16.497 23.7632C15.8135 24.4469 15.8135 25.5549 16.497 26.2384L21.339 31.0804C21.6806 31.422 22.1287 31.5928 22.5765 31.5928C23.0243 31.5928 23.4723 31.422 23.8139 31.0804L33.4982 21.3963C34.1819 20.7129 34.1819 19.6047 33.4984 18.9214C32.8152 18.2379 31.707 18.2377 31.0235 18.9212Z" fill="white"/>
</g>
<defs>
<clipPath id="clip0">
<rect width="50" height="50" fill="white"/>
</clipPath>
</defs>
</svg>
