<svg width="21" height="21" viewBox="0 0 21 21" fill="none" xmlns="http://www.w3.org/2000/svg">
    <path d="M1.88672 11.1562H19.1133C19.4531 11.1562 19.7285 10.8808 19.7285 10.541V0.615234C19.7285 0.275461 19.4531 0 19.1133 0H1.88672C1.54695 0 1.27148 0.275461 1.27148 0.615234V10.541C1.27148 10.8808 1.54695 11.1562 1.88672 11.1562ZM2.50195 1.23047H18.498V9.92578H2.50195V1.23047Z" fill="#364859"/>
    <path d="M20.8651 15.0979C19.8055 13.7736 17.8658 13.5582 16.5414 14.6177C15.9526 15.0886 15.537 15.4059 15.2216 15.6205C14.7833 14.4555 13.6513 13.6308 12.3457 13.6308C11.2937 13.6308 9.87607 13.5823 8.23819 13.2034C6.64018 12.8367 5.7524 12.9233 4.21415 13.617H0.615234C0.275461 13.617 0 13.8925 0 14.2323V20.3846C0 20.7244 0.275461 20.9999 0.615234 20.9999H4.34766C4.68743 20.9999 4.96289 20.7244 4.96289 20.3846V19.7854C5.93779 19.5146 6.77599 19.4869 7.63313 19.6912C8.97229 20.0103 10.2268 20.1694 11.4213 20.1694C15.1657 20.1694 18.2827 18.5819 20.8303 15.9065C21.0425 15.6837 21.0574 15.3382 20.8651 15.0979ZM1.23047 19.7694V14.8476H3.73242V19.7694H1.23047ZM7.91839 18.4943C6.94755 18.2629 6.01014 18.2671 4.96289 18.5151V14.6316C6.09927 14.1453 6.70626 14.1144 7.96195 14.4025C9.72009 14.8092 11.2282 14.8613 12.3457 14.8613C13.1373 14.8613 13.822 15.3659 14.0776 16.0751C14.0546 16.0762 9.26953 16.078 9.26953 16.078C8.92976 16.078 8.6543 16.3535 8.6543 16.6933C8.6543 17.033 8.92976 17.3085 9.26953 17.3085C9.26953 17.3085 14.0317 17.3084 14.0386 17.3082C15.0829 17.2729 15.6244 16.9269 17.31 15.5786C17.9586 15.0597 18.8531 15.0504 19.5057 15.4965C15.2561 19.6325 10.8786 19.1997 7.91839 18.4943Z" fill="#364859"/>
    <path d="M5.57812 3.69141C5.9179 3.69141 6.19336 3.41595 6.19336 3.07617C6.19336 2.7364 5.9179 2.46094 5.57812 2.46094H4.34766C4.00788 2.46094 3.73242 2.7364 3.73242 3.07617V8.08008C3.73242 8.41985 4.00788 8.69531 4.34766 8.69531H5.57812C5.9179 8.69531 6.19336 8.41985 6.19336 8.08008C6.19336 7.7403 5.9179 7.46484 5.57812 7.46484H4.96289V3.69141H5.57812Z" fill="#364859"/>
    <path d="M16.6523 2.46094H15.4219C15.0821 2.46094 14.8066 2.7364 14.8066 3.07617C14.8066 3.41595 15.0821 3.69141 15.4219 3.69141H16.0371V7.46484H15.4219C15.0821 7.46484 14.8066 7.7403 14.8066 8.08008C14.8066 8.41985 15.0821 8.69531 15.4219 8.69531H16.6523C16.9921 8.69531 17.2676 8.41985 17.2676 8.08008V3.07617C17.2676 2.7364 16.9921 2.46094 16.6523 2.46094Z" fill="#364859"/>
    <path d="M10.5 2.46094C8.79966 2.46094 7.42383 3.87733 7.42383 5.57812C7.42383 7.27855 8.79925 8.69531 10.5 8.69531C12.2003 8.69531 13.5762 7.27892 13.5762 5.57812C13.5762 3.8777 12.2008 2.46094 10.5 2.46094ZM10.5 7.46484C9.49951 7.46484 8.6543 6.60085 8.6543 5.57812C8.6543 4.5554 9.49951 3.69141 10.5 3.69141C11.5005 3.69141 12.3457 4.5554 12.3457 5.57812C12.3457 6.60085 11.5005 7.46484 10.5 7.46484Z" fill="#364859"/>
</svg>
