<svg width="62" height="62" viewBox="0 0 62 62" fill="none" xmlns="http://www.w3.org/2000/svg">
<path fill-rule="evenodd" clip-rule="evenodd" d="M59.7787 41.6717L47.7526 29.6457C47.4834 29.3747 47.163 29.1599 46.8101 29.0138C46.4573 28.8676 46.0789 28.7929 45.6969 28.7942H29.0625V30.7317H33.9062H35.8438H45.6969C45.8243 30.7316 45.9504 30.7566 46.0681 30.8053C46.1858 30.854 46.2927 30.9254 46.3828 31.0155L48.0364 32.6692H43.5938C43.0799 32.6692 42.5871 32.8733 42.2237 33.2366C41.8604 33.6 41.6562 34.0928 41.6562 34.6067V43.3254C41.6562 43.8393 41.8604 44.3321 42.2237 44.6954C42.5871 45.0588 43.0799 45.2629 43.5938 45.2629H58.125V53.0129C58.125 53.2698 58.0229 53.5162 57.8413 53.6979C57.6596 53.8796 57.4132 53.9816 57.1562 53.9816H54.8462V55.9191H57.1562C57.927 55.9191 58.6663 55.613 59.2113 55.0679C59.7563 54.5229 60.0625 53.7837 60.0625 53.0129V42.3567C60.0624 42.0997 59.9603 41.8534 59.7787 41.6717ZM43.5938 34.6067V43.3254H58.125V42.7577L49.9739 34.6067H43.5938Z" fill="white"/>
<path d="M14.7846 53.9816H12.5938C12.3368 53.9816 12.0904 53.8796 11.9087 53.6979C11.7271 53.5162 11.625 53.2698 11.625 53.0129V44.2942H9.6875V53.0129C9.6875 53.7837 9.99369 54.5229 10.5387 55.0679C11.0837 55.613 11.823 55.9191 12.5938 55.9191H14.7846V53.9816Z" fill="white"/>
<path d="M41.9692 53.9816H27.6615V55.9191H41.9692V53.9816Z" fill="white"/>
<path d="M22.2812 53.9818H20.3438V55.9193H22.2812V53.9818Z" fill="white"/>
<path d="M49.4062 53.9818H47.4688V55.9193H49.4062V53.9818Z" fill="white"/>
<path d="M14.5312 42.3567C17.0221 42.3567 19.4569 41.6181 21.528 40.2343C23.599 38.8505 25.2132 36.8836 26.1664 34.5824C27.1195 32.2812 27.3689 29.749 26.883 27.3061C26.3971 24.8631 25.1976 22.6191 23.4364 20.8579C21.6751 19.0966 19.4311 17.8972 16.9882 17.4112C14.5452 16.9253 12.013 17.1747 9.71183 18.1279C7.41062 19.0811 5.44375 20.6952 4.05993 22.7663C2.67611 24.8373 1.9375 27.2722 1.9375 29.763C1.94135 33.1019 3.26942 36.3029 5.63037 38.6639C7.99132 41.0248 11.1924 42.3529 14.5312 42.3567ZM14.5312 19.1067C16.6389 19.1067 18.6991 19.7317 20.4515 20.9026C22.204 22.0736 23.5698 23.7378 24.3763 25.685C25.1829 27.6322 25.3939 29.7748 24.9827 31.8419C24.5716 33.909 23.5567 35.8078 22.0664 37.2981C20.5761 38.7884 18.6773 39.8033 16.6102 40.2145C14.5431 40.6257 12.4005 40.4146 10.4533 39.6081C8.5061 38.8015 6.84183 37.4357 5.6709 35.6833C4.49998 33.9309 3.875 31.8706 3.875 29.763C3.87833 26.9378 5.00211 24.2293 6.99982 22.2316C8.99754 20.2338 11.7061 19.1101 14.5312 19.1067Z" fill="white"/>
<path d="M14.5312 38.4818C14.7882 38.4817 15.0345 38.3796 15.2162 38.1979C15.84 37.5741 21.3125 31.9815 21.3125 27.8255C21.3125 26.027 20.598 24.3022 19.3263 23.0305C18.0546 21.7587 16.3297 21.0443 14.5312 21.0443C12.7328 21.0443 11.0079 21.7587 9.73618 23.0305C8.46445 24.3022 7.75 26.027 7.75 27.8255C7.75 31.9815 13.2225 37.5741 13.8463 38.1979C14.028 38.3796 14.2743 38.4817 14.5312 38.4818ZM14.5312 22.9818C15.8154 22.9833 17.0466 23.4941 17.9546 24.4022C18.8626 25.3102 19.3735 26.5414 19.375 27.8255C19.375 30.3113 16.3263 34.1524 14.5312 36.1093C12.7362 34.1524 9.6875 30.3113 9.6875 27.8255C9.68904 26.5414 10.1999 25.3102 11.1079 24.4022C12.0159 23.4941 13.2471 22.9833 14.5312 22.9818Z" fill="white"/>
<path d="M17.4375 27.8255C17.4375 27.2507 17.2671 26.6888 16.9477 26.2109C16.6284 25.733 16.1745 25.3605 15.6434 25.1405C15.1124 24.9205 14.528 24.863 13.9643 24.9751C13.4005 25.0872 12.8827 25.364 12.4762 25.7705C12.0698 26.1769 11.793 26.6948 11.6808 27.2585C11.5687 27.8223 11.6263 28.4066 11.8462 28.9377C12.0662 29.4687 12.4387 29.9226 12.9166 30.242C13.3946 30.5613 13.9564 30.7318 14.5313 30.7318C15.302 30.7318 16.0413 30.4256 16.5863 29.8805C17.1313 29.3355 17.4375 28.5963 17.4375 27.8255ZM13.5625 27.8255C13.5625 27.6339 13.6193 27.4466 13.7258 27.2873C13.8322 27.128 13.9835 27.0038 14.1605 26.9305C14.3375 26.8572 14.5323 26.838 14.7202 26.8754C14.9082 26.9128 15.0808 27.005 15.2163 27.1405C15.3517 27.276 15.444 27.4486 15.4814 27.6365C15.5188 27.8244 15.4996 28.0192 15.4263 28.1962C15.3529 28.3733 15.2288 28.5246 15.0695 28.631C14.9101 28.7375 14.7229 28.7943 14.5313 28.7943C14.2743 28.7943 14.0279 28.6922 13.8462 28.5105C13.6646 28.3289 13.5625 28.0824 13.5625 27.8255Z" fill="white"/>
<path d="M26.9476 55.0371C26.9476 58.1724 24.406 60.714 21.2707 60.714C18.1354 60.714 15.5938 58.1724 15.5938 55.0371C15.5938 51.9018 18.1354 49.3602 21.2707 49.3602C24.406 49.3602 26.9476 51.9018 26.9476 55.0371Z" stroke="white" stroke-width="2"/>
<path d="M54.1322 55.0371C54.1322 58.1724 51.5905 60.714 48.4552 60.714C45.32 60.714 42.7783 58.1724 42.7783 55.0371C42.7783 51.9018 45.32 49.3602 48.4552 49.3602C51.5905 49.3602 54.1322 51.9018 54.1322 55.0371Z" stroke="white" stroke-width="2"/>
</svg>
