<svg width="50" height="39" viewBox="0 0 50 39" fill="none" xmlns="http://www.w3.org/2000/svg">
    <path fill-rule="evenodd" clip-rule="evenodd" d="M49.7562 21.338L39.4112 10.8651C39.1796 10.6291 38.904 10.4421 38.6004 10.3148C38.2969 10.1875 37.9714 10.1225 37.6428 10.1235H23.3337V11.8108H27.5003H29.167H37.6428C37.7524 11.8107 37.8609 11.8325 37.9621 11.8749C38.0634 11.9174 38.1554 11.9796 38.2328 12.058L39.6553 13.4981H35.8337C35.3916 13.4981 34.9677 13.6759 34.6551 13.9923C34.3426 14.3087 34.167 14.7379 34.167 15.1854V22.7781C34.167 23.2256 34.3426 23.6547 34.6551 23.9712C34.9677 24.2876 35.3916 24.4654 35.8337 24.4654H48.3337V31.2145C48.3337 31.4382 48.2459 31.6528 48.0896 31.811C47.9333 31.9692 47.7213 32.0581 47.5003 32.0581H45.5131V33.7454H47.5003C48.1634 33.7454 48.7992 33.4787 49.2681 33.0041C49.7369 32.5294 50.0003 31.8857 50.0003 31.2145V21.9345C50.0003 21.7107 49.9124 21.4962 49.7562 21.338ZM35.8337 15.1854V22.7781H48.3337V22.2837L41.322 15.1854H35.8337Z" fill="white"/>
    <path d="M11.0516 32.0581H9.16699C8.94598 32.0581 8.73402 31.9692 8.57774 31.811C8.42146 31.6528 8.33366 31.4382 8.33366 31.2145V23.6217H6.66699V31.2145C6.66699 31.8857 6.93038 32.5294 7.39922 33.0041C7.86807 33.4787 8.50395 33.7454 9.16699 33.7454H11.0516V32.0581Z" fill="white"/>
    <path d="M34.4362 32.0581H22.1285V33.7454H34.4362V32.0581Z" fill="white"/>
    <path d="M17.4997 32.0581H15.833V33.7454H17.4997V32.0581Z" fill="white"/>
    <path d="M40.8337 32.0581H39.167V33.7454H40.8337V32.0581Z" fill="white"/>
    <path d="M10.8333 21.9346C12.976 21.9346 15.0705 21.2913 16.852 20.0862C18.6335 18.8811 20.0221 17.1683 20.842 15.1643C21.662 13.1603 21.8765 10.9551 21.4585 8.82768C21.0405 6.70023 20.0087 4.74605 18.4937 3.21225C16.9786 1.67845 15.0483 0.633913 12.9468 0.210738C10.8454 -0.212437 8.66713 0.00475195 6.6876 0.83484C4.70806 1.66493 3.01613 3.07063 1.82575 4.87419C0.635364 6.67775 0 8.79816 0 10.9673C0.00330831 13.875 1.14574 16.6626 3.17666 18.7186C5.20759 20.7747 7.96117 21.9312 10.8333 21.9346ZM10.8333 1.68728C12.6463 1.68728 14.4186 2.23154 15.9261 3.25124C17.4335 4.27094 18.6084 5.72028 19.3022 7.41598C19.996 9.11168 20.1776 10.9776 19.8239 12.7777C19.4702 14.5779 18.5971 16.2314 17.3151 17.5292C16.0332 18.8271 14.3998 19.7109 12.6217 20.069C10.8435 20.4271 9.00039 20.2433 7.3254 19.5409C5.65041 18.8385 4.21877 17.6491 3.21153 16.123C2.20428 14.5969 1.66667 12.8027 1.66667 10.9673C1.66953 8.50697 2.63623 6.14825 4.35469 4.40854C6.07315 2.66883 8.40306 1.69018 10.8333 1.68728Z" fill="white"/>
    <path d="M10.8333 18.5601C11.0543 18.56 11.2663 18.4711 11.4225 18.3129C11.9592 17.7696 16.6667 12.8992 16.6667 9.28C16.6667 7.71377 16.0521 6.21168 14.9581 5.10419C13.8642 3.9967 12.3804 3.37451 10.8333 3.37451C9.28624 3.37451 7.80251 3.9967 6.70854 5.10419C5.61458 6.21168 5 7.71377 5 9.28C5 12.8992 9.7075 17.7696 10.2442 18.3129C10.4004 18.4711 10.6123 18.56 10.8333 18.5601ZM10.8333 5.06179C11.938 5.06313 12.997 5.50798 13.7782 6.29876C14.5593 7.08954 14.9987 8.16168 15 9.28C15 11.4448 12.3775 14.7898 10.8333 16.494C9.28917 14.7898 6.66667 11.4448 6.66667 9.28C6.66799 8.16168 7.1074 7.08954 7.88852 6.29876C8.66963 5.50798 9.72867 5.06313 10.8333 5.06179Z" fill="white"/>
    <path d="M13.333 9.27991C13.333 8.77935 13.1864 8.29003 12.9117 7.87383C12.637 7.45762 12.2465 7.13323 11.7897 6.94168C11.3329 6.75012 10.8302 6.7 10.3453 6.79765C9.86033 6.89531 9.41487 7.13635 9.06524 7.4903C8.71561 7.84425 8.47751 8.29521 8.38105 8.78616C8.28458 9.2771 8.33409 9.78598 8.52331 10.2484C8.71253 10.7109 9.03296 11.1062 9.44408 11.3843C9.85521 11.6624 10.3386 11.8108 10.833 11.8108C11.496 11.8108 12.1319 11.5441 12.6008 11.0695C13.0696 10.5949 13.333 9.95114 13.333 9.27991ZM9.99968 9.27991C9.99968 9.11305 10.0485 8.94995 10.1401 8.81121C10.2317 8.67248 10.3618 8.56435 10.5141 8.5005C10.6664 8.43665 10.8339 8.41994 10.9956 8.45249C11.1572 8.48504 11.3057 8.56539 11.4223 8.68337C11.5388 8.80136 11.6182 8.95168 11.6503 9.11532C11.6825 9.27897 11.666 9.4486 11.6029 9.60275C11.5398 9.7569 11.433 9.88866 11.296 9.98136C11.1589 10.0741 10.9978 10.1235 10.833 10.1235C10.612 10.1235 10.4 10.0347 10.2438 9.87644C10.0875 9.71823 9.99968 9.50365 9.99968 9.27991Z" fill="white"/>
    <path d="M21.3749 32.9774C21.3749 35.648 19.2396 37.792 16.6313 37.792C14.023 37.792 11.8877 35.648 11.8877 32.9774C11.8877 30.3068 14.023 28.1628 16.6313 28.1628C19.2396 28.1628 21.3749 30.3068 21.3749 32.9774Z" stroke="white" stroke-width="2"/>
    <path d="M44.7587 32.9774C44.7587 35.648 42.6233 37.792 40.0151 37.792C37.4068 37.792 35.2715 35.648 35.2715 32.9774C35.2715 30.3068 37.4068 28.1628 40.0151 28.1628C42.6233 28.1628 44.7587 30.3068 44.7587 32.9774Z" stroke="white" stroke-width="2"/>
</svg>
