<svg width="15" height="15" viewBox="0 0 15 15" fill="none" xmlns="http://www.w3.org/2000/svg">
    <path d="M7.39746 8.05664C6.37383 8.05664 5.39912 7.57002 4.65264 6.68672C3.96738 5.87578 3.57422 4.83193 3.57422 3.82324C3.57422 2.80926 3.97702 1.8368 4.69402 1.1198C5.41102 0.402805 6.38347 0 7.39746 0C8.41145 0 9.3839 0.402805 10.1009 1.1198C10.8179 1.8368 11.2207 2.80926 11.2207 3.82324C11.2207 4.83193 10.8275 5.87578 10.1423 6.68672C9.3958 7.57002 8.42109 8.05664 7.39746 8.05664ZM7.39746 1.46484C6.77219 1.46554 6.17273 1.71424 5.73059 2.15637C5.28846 2.59851 5.03976 3.19797 5.03906 3.82324C5.03906 4.48154 5.3127 5.19844 5.77148 5.74102C6.23496 6.28975 6.8124 6.59063 7.39746 6.59063C7.98252 6.59063 8.55996 6.28857 9.02344 5.74102C9.48223 5.19844 9.75586 4.48125 9.75586 3.82324C9.75516 3.19797 9.50646 2.59851 9.06433 2.15637C8.6222 1.71424 8.02273 1.46554 7.39746 1.46484Z" fill="#364859"/>
    <path d="M13.7549 15C13.5606 15 13.3743 14.9228 13.237 14.7855C13.0996 14.6481 13.0225 14.4618 13.0225 14.2676V12.588C13.0225 11.1483 12.1271 10.2539 10.686 10.2539H4.31396C2.87285 10.2539 1.97754 11.1483 1.97754 12.588V14.2676C1.97754 14.4618 1.90037 14.6481 1.76302 14.7855C1.62566 14.9228 1.43937 15 1.24512 15C1.05087 15 0.864572 14.9228 0.727217 14.7855C0.589861 14.6481 0.512695 14.4618 0.512695 14.2676V12.588C0.512695 11.4826 0.877734 10.5337 1.56738 9.84375C2.25703 9.15381 3.20801 8.78906 4.31279 8.78906H10.6849C11.7905 8.78906 12.7397 9.15381 13.4303 9.84375C14.1208 10.5337 14.485 11.4826 14.485 12.588V14.2676C14.485 14.4614 14.4081 14.6474 14.2713 14.7847C14.1344 14.9219 13.9487 14.9994 13.7549 15Z" fill="#364859"/>
</svg>
