<svg width="50" height="50" viewBox="0 0 50 50" fill="none" xmlns="http://www.w3.org/2000/svg">
<g clip-path="url(#clip0)">
<path d="M48.2768 4.55187L45.2723 1.54738C43.3129 -0.411997 40.0113 -0.525962 37.9123 1.29347L32.6319 5.87062C32.5644 5.92921 32.5064 5.99816 32.4603 6.07482L27.3201 14.6369L24.0197 15.737C23.7408 15.83 23.53 16.0608 23.4625 16.3468C23.395 16.6328 23.4804 16.9334 23.6882 17.1413L32.6828 26.1359C32.8438 26.2967 33.0603 26.3842 33.2825 26.3842C33.3475 26.3842 33.4128 26.3768 33.4774 26.3615C33.7634 26.2941 33.9941 26.0832 34.0871 25.8043L35.1875 22.5028L43.8755 17.2568C43.952 17.2105 44.0207 17.1526 44.0791 17.0848L48.5479 11.9062C50.3571 9.80968 50.2354 6.51056 48.2768 4.55187ZM47.2639 10.7981L42.8833 15.8744L34.0435 21.2122C33.8709 21.3164 33.7411 21.4787 33.6774 21.6701L32.912 23.9662L30.8852 21.9394C30.8848 21.939 30.8845 21.9385 30.8841 21.9381L27.8857 18.94C27.8855 18.9397 27.8851 18.9395 27.8848 18.9392L25.8577 16.9121L28.1538 16.1468C28.3458 16.0827 28.5086 15.9523 28.6127 15.7788L33.8449 7.06369L39.0233 2.57501C40.464 1.32599 42.7292 1.40294 44.0729 2.74679L47.0775 5.75128C48.4218 7.09542 48.5054 9.35949 47.2639 10.7981Z" fill="white"/>
<path d="M45.8729 34.0745C43.383 31.5848 39.7185 30.7193 36.3983 31.7957L18.3756 13.7731C19.4519 10.4528 18.5864 6.78819 16.0968 4.29834C13.4738 1.67549 9.5469 0.854982 6.09241 2.20889C5.8261 2.31328 5.6302 2.54492 5.5717 2.825C5.51321 3.10498 5.59983 3.3957 5.80217 3.59805L11.1968 8.99258L7.59885 12.5904L2.20432 7.1958C2.00188 6.99356 1.71155 6.90713 1.43127 6.96533C1.1512 7.02383 0.919457 7.21963 0.81516 7.48604C-0.538551 10.9403 0.281664 14.8673 2.90461 17.4904C5.39446 19.9802 9.05901 20.8458 12.3792 19.7692L19.1183 26.5083L10.726 34.9008L5.38831 37.8852C5.23987 37.9682 5.11975 38.094 5.04368 38.2461L2.64514 43.0432C2.48186 43.3696 2.54582 43.764 2.80393 44.0222L5.80207 47.0204C5.96487 47.1832 6.18196 47.2688 6.40198 47.2688C6.53079 47.2688 6.66057 47.2395 6.78108 47.1792L11.5781 44.7807C11.7303 44.7046 11.8561 44.5845 11.9391 44.436L14.9235 39.0982L23.3159 30.7061L30.402 37.7921C29.3256 41.1123 30.1911 44.777 32.6809 47.2668C34.4644 49.0502 36.8504 50.0002 39.2811 50.0002C40.4252 50.0001 41.5795 49.7896 42.6852 49.3564C42.9515 49.252 43.1474 49.0203 43.2059 48.7402C43.2644 48.4603 43.1778 48.1695 42.9754 47.9672L37.5808 42.5726L41.1786 38.9748L46.5732 44.3693C46.7755 44.5717 47.066 44.6585 47.3462 44.5998C47.6263 44.5413 47.858 44.3455 47.9623 44.0791C49.3161 40.6246 48.4959 36.6977 45.8729 34.0745ZM13.6408 37.982C13.5857 38.0372 13.5385 38.0997 13.5004 38.1679L10.5861 43.3804L6.56926 45.3888L4.43547 43.255L6.44377 39.2381L11.6562 36.3238C11.7243 36.2857 11.7868 36.2386 11.842 36.1834L20.3175 27.7078L22.1164 29.5067L13.6408 37.982ZM46.7639 42.1612L41.7783 37.1757C41.4471 36.8446 40.9103 36.8446 40.579 37.1757L35.782 41.9728C35.623 42.1318 35.5336 42.3475 35.5336 42.5725C35.5336 42.7975 35.623 43.013 35.782 43.1722L40.7676 48.1578C38.2955 48.649 35.7031 47.8903 33.8802 46.0675C31.734 43.9213 31.0628 40.7079 32.1705 37.8813C32.2935 37.5674 32.219 37.2106 31.9807 36.9722L13.1991 18.1907C13.037 18.0287 12.8201 17.9424 12.5992 17.9424C12.4953 17.9424 12.3905 17.9615 12.2901 18.0009C9.4635 19.1087 6.25012 18.4373 4.10383 16.2913C2.28088 14.4683 1.52209 11.8757 2.0136 9.40381L6.99914 14.3895C7.33039 14.7206 7.86721 14.7204 8.19846 14.3895L12.9955 9.59239C13.3267 9.26114 13.3267 8.72432 12.9955 8.39307L8.00998 3.40742C10.4821 2.91524 13.0743 3.67461 14.8974 5.49776C17.0436 7.64395 17.7148 10.8573 16.6071 13.684C16.4841 13.9979 16.5586 14.3547 16.7969 14.5931L35.5782 33.3743C35.8167 33.6126 36.1738 33.6871 36.4873 33.5642C39.3141 32.4567 42.5273 33.1276 44.6736 35.2737C46.4967 37.0968 47.2553 39.6895 46.7639 42.1612Z" fill="white"/>
</g>
<defs>
<clipPath id="clip0">
<rect width="50" height="50" fill="white"/>
</clipPath>
</defs>
</svg>
