<svg width="10" height="10" viewBox="0 0 10 10" fill="none" xmlns="http://www.w3.org/2000/svg">
    <path d="M9.84016 2.54017L9.5126 2.21033C9.40951 2.10732 9.27235 2.05057 9.12577 2.05057C8.97926 2.05057 8.84194 2.10732 8.73885 2.21033L5.00224 5.94711L1.26131 2.20618C1.15838 2.10318 1.02107 2.04651 0.87456 2.04651C0.728055 2.04651 0.590655 2.10318 0.487646 2.20618L0.160001 2.53399C-0.0533338 2.74716 -0.0533338 3.0944 0.160001 3.30758L4.61402 7.77761C4.71695 7.88054 4.8541 7.95306 5.00191 7.95306H5.00362C5.1502 7.95306 5.28736 7.88046 5.39029 7.77761L9.84016 3.31969C9.94325 3.21676 9.99984 3.07546 10 2.92895C10 2.78237 9.94325 2.64302 9.84016 2.54017Z"
          fill="#A62525"/>
</svg>
