<svg width="230" height="31" viewBox="0 0 230 31" fill="none" xmlns="http://www.w3.org/2000/svg">
<path d="M0 27.2477C0 26.6704 1.55481 22.2253 4.71994 13.8547C7.94061 4.61825 10.9947 0 13.9377 0H32.3733C31.8735 1.90503 31.4293 2.88641 31.2072 2.88641H20.268C19.7682 2.88641 19.2685 3.05959 18.7687 3.34823C18.0468 3.34823 14.8262 10.3911 9.16224 24.419V24.8808C9.16224 25.4581 9.49542 25.9199 10.0507 26.2663H10.7726C11.7166 26.2663 16.9918 26.2663 26.4317 26.2663L24.5992 30.9423H1.49928C0.555287 30.9423 0.0555287 29.9609 0 28.0559V27.2477ZM36.8711 0L35.7605 2.88641H27.1536L28.2641 0H36.8711Z" fill="#364859"/>
<path d="M30.2073 26.2663H36.0379L34.0944 30.9423H28.4859H28.4304L30.2073 26.2663ZM28.4859 30.9423L30.3184 26.2663H59.3599L57.4719 30.9423H28.4859ZM39.5362 2.88641L40.5912 0H62.5251L61.4145 2.88641H39.5362ZM38.9809 4.27188H47.6434L44.145 12.8734H48.0321C48.6429 11.3724 49.3092 9.69832 50.0311 7.73557L51.3638 4.27188H60.3594C59.5265 6.69646 58.3049 9.52514 56.8056 12.8734C56.2503 14.3743 55.2508 15.1248 53.6405 15.1825C54.64 15.8752 54.8621 17.0875 54.1957 18.8194L51.5859 24.9963H42.8679L46.6438 16.2793H42.8124L39.2585 25.1117H30.8182L38.9809 4.27188ZM76.3517 11.0838C76.907 9.52514 77.0736 8.65922 76.9625 8.48603H76.8515C76.5738 8.65922 76.0185 9.52514 75.1301 11.0838L68.189 25.054H59.471L69.5772 7.62011C70.5212 5.36871 72.1315 4.27188 74.2971 4.27188H82.5709C84.7365 4.27188 85.3474 5.36871 84.2923 7.62011L79.9611 25.054H71.2431L76.3517 11.0838ZM56.7501 30.9423L58.638 26.2663H87.6796L85.7916 30.9423H56.7501ZM58.7491 2.88641L59.8597 0H90.5115L89.401 2.88641H58.7491ZM93.4546 7.44693C94.7317 5.36871 96.4531 4.32961 98.7298 4.32961H99.5072C99.5072 4.32961 99.5072 4.32961 99.5072 4.27188H110.613C113.611 4.27188 114.222 6.17691 112.334 9.92924L105.949 25.054H97.4526L100.784 16.568H98.3411L94.7872 25.054H86.2913L92.2885 9.92924C92.3995 9.6406 92.455 9.40968 92.5661 9.17877H101.34C100.951 10.0447 100.507 11.257 99.8959 12.7579C99.8959 12.9311 99.8959 13.0466 100.007 13.1043H101.784C102.006 13.1043 102.173 12.9888 102.395 12.7579L103.949 8.48603C104.338 7.85102 104.172 7.50465 103.505 7.44693H93.4546ZM83.1817 30.9423L85.0697 26.2663H115.777L113.889 30.9423H83.1817ZM85.514 2.88641L86.6245 0H117.276L116.166 2.88641H85.514ZM136.989 4.27188C138.988 4.27188 139.988 5.02235 139.988 6.46555C139.988 7.33147 138.044 12.2961 134.102 21.4171C133.158 23.8417 131.436 25.054 128.937 25.054H111.501C115.944 14.7784 118.276 9.52514 118.498 9.29423H126.55L121.219 21.9367V22.1099H122.607C123.44 22.1099 124.106 21.9367 124.606 21.648C125.384 21.648 127.494 17.0875 130.992 7.90875V7.73557H119.275C120.108 5.77281 120.553 4.61825 120.664 4.27188H136.989ZM109.28 30.9423L111.168 26.2663H138.544L136.656 30.9423H109.28ZM111.779 2.88641L112.89 0H142.986L141.876 2.88641H111.779Z" fill="#364859"/>
<path d="M174.916 0L173.805 2.88641H166.253L155.592 31H147.151L157.702 2.88641H148.262L149.373 0H174.916ZM168.863 30.9423L170.751 26.2663H198.127L196.239 30.9423H168.863ZM170.918 2.88641L172.028 0H202.18L201.07 2.88641H170.918ZM194.628 30.9423L196.516 26.2663H228.223L226.335 30.9423H194.628ZM196.017 2.88641L197.127 0H230L228.89 2.88641H196.017ZM214.619 12.8734L217.951 4.27188H226.946C226.113 6.69646 224.892 9.52514 223.392 12.8734C222.837 14.3743 221.838 15.1248 220.227 15.1825C221.227 15.8752 221.449 17.0875 220.782 18.8194L218.173 24.9963H209.899L213.175 16.2216H210.843L207.289 24.9963H198.571L201.125 18.8194C201.903 17.0875 203.124 15.8752 204.735 15.1825C203.235 15.1248 202.847 14.3166 203.569 12.8734C204.846 9.52514 206.067 6.63873 207.233 4.27188H215.729L212.342 12.8734H214.619Z" fill="#A62525"/>
<path d="M171.806 23.2067C171.994 22.6542 173.639 18.1266 177.248 9.92924C178.47 6.11918 180.58 4.27188 183.634 4.27188H197.294C196.294 6.69646 195.739 7.96648 195.739 8.02421H188.187C187.188 8.02421 186.077 9.58287 184.855 12.7579C184.855 12.9888 184.966 13.1043 185.189 13.1043H191.019C191.297 13.162 191.463 13.5084 191.463 14.0279V14.4898C191.463 15.702 190.964 16.3948 189.964 16.568H183.245C182.912 16.568 182.246 18.0112 181.302 20.8398C181.524 21.2439 181.746 21.4749 181.912 21.4749H189.464C188.465 23.7263 187.965 24.8808 187.965 25.1117H173.361C172.417 25.1117 171.557 24.1386 171.806 23.2067Z" fill="#A62525"/>
</svg>
